<svg width="76" height="76" viewBox="0 0 76 76" fill="none" xmlns="http://www.w3.org/2000/svg">
<path d="M64.125 68.875C64.125 68.2192 64.6567 67.6875 65.3125 67.6875H67.6875C68.3433 67.6875 68.875 68.2192 68.875 68.875C68.875 69.5308 68.3433 70.0625 67.6875 70.0625H65.3125C64.6567 70.0625 64.125 69.5308 64.125 68.875Z" fill="white"/>
<path d="M64.125 64.125C64.125 63.4692 64.6567 62.9375 65.3125 62.9375H67.6875C68.3433 62.9375 68.875 63.4692 68.875 64.125C68.875 64.7808 68.3433 65.3125 67.6875 65.3125H65.3125C64.6567 65.3125 64.125 64.7808 64.125 64.125Z" fill="white"/>
<path d="M7.125 40.375C7.125 39.7192 7.65666 39.1875 8.3125 39.1875H10.6875C11.3433 39.1875 11.875 39.7192 11.875 40.375C11.875 41.0308 11.3433 41.5625 10.6875 41.5625H8.3125C7.65666 41.5625 7.125 41.0308 7.125 40.375Z" fill="white"/>
<path d="M7.125 35.625C7.125 34.9692 7.65666 34.4375 8.3125 34.4375H10.6875C11.3433 34.4375 11.875 34.9692 11.875 35.625C11.875 36.2808 11.3433 36.8125 10.6875 36.8125H8.3125C7.65666 36.8125 7.125 36.2808 7.125 35.625Z" fill="white"/>
<path d="M74.8125 17.8125V1.1875H51.0625V8.3125H46.3125C43.0386 8.3125 40.375 10.9761 40.375 14.25V21.375H35.625V15.4375C35.625 12.1636 32.9614 9.5 29.6875 9.5H22.9591L13.0625 2.07812L1.58294 10.6875L13.0625 19.2969L22.9591 11.875H29.6875C31.6516 11.875 33.25 13.4734 33.25 15.4375V21.375H24.9375C22.9734 21.375 21.375 22.9734 21.375 24.9375V27.3125C21.375 29.2766 22.9734 30.875 24.9375 30.875H25.156C25.023 31.2479 24.9375 31.6445 24.9375 32.0625C24.9375 32.4805 25.023 32.8771 25.156 33.25H24.9375C22.9734 33.25 21.375 34.8484 21.375 36.8125H17.7175C17.138 32.7904 13.6788 29.6875 9.5 29.6875C4.91744 29.6875 1.1875 33.4162 1.1875 38C1.1875 42.5838 4.91744 46.3125 9.5 46.3125C13.6788 46.3125 17.138 43.2096 17.7175 39.1875H21.375C21.375 41.1516 22.9734 42.75 24.9375 42.75H25.156C25.023 43.1229 24.9375 43.5195 24.9375 43.9375C24.9375 44.3555 25.023 44.7521 25.156 45.125H24.9375C22.9734 45.125 21.375 46.7234 21.375 48.6875V51.0625C21.375 53.0266 22.9734 54.625 24.9375 54.625H33.25V61.75C33.25 63.7141 31.6516 65.3125 29.6875 65.3125H24.9375V58.1875H1.1875V74.8125H24.9375V67.6875H29.6875C32.9614 67.6875 35.625 65.0239 35.625 61.75V54.625H40.375V61.75C40.375 65.0239 43.0386 67.6875 46.3125 67.6875H58.2825C58.862 71.7096 62.3212 74.8125 66.5 74.8125C71.0826 74.8125 74.8125 71.0837 74.8125 66.5C74.8125 61.9162 71.0826 58.1875 66.5 58.1875C62.3212 58.1875 58.862 61.2904 58.2825 65.3125H46.3125C44.3484 65.3125 42.75 63.7141 42.75 61.75V54.625H51.0625C53.0266 54.625 54.625 53.0266 54.625 51.0625V48.6875C54.625 46.7234 53.0266 45.125 51.0625 45.125H50.844C50.977 44.7521 51.0625 44.3555 51.0625 43.9375C51.0625 43.5195 50.977 43.1229 50.844 42.75H51.0625C53.0266 42.75 54.625 41.1516 54.625 39.1875H60.5625V46.3125H74.8125V29.6875H60.5625V36.8125H54.625C54.625 34.8484 53.0266 33.25 51.0625 33.25H50.844C50.977 32.8771 51.0625 32.4805 51.0625 32.0625C51.0625 31.6445 50.977 31.2479 50.844 30.875H51.0625C53.0266 30.875 54.625 29.2766 54.625 27.3125V24.9375C54.625 22.9734 53.0266 21.375 51.0625 21.375H42.75V14.25C42.75 12.2859 44.3484 10.6875 46.3125 10.6875H51.0625V17.8125H74.8125ZM13.0625 16.3281L5.54206 10.6875L13.0625 5.04688L20.5829 10.6875L13.0625 16.3281ZM9.5 43.9375C6.22606 43.9375 3.5625 41.2739 3.5625 38C3.5625 34.7261 6.22606 32.0625 9.5 32.0625C12.7739 32.0625 15.4375 34.7261 15.4375 38C15.4375 41.2739 12.7739 43.9375 9.5 43.9375ZM22.5625 72.4375H3.5625V60.5625H22.5625V72.4375ZM66.5 60.5625C69.7739 60.5625 72.4375 63.2261 72.4375 66.5C72.4375 69.7739 69.7739 72.4375 66.5 72.4375C63.2261 72.4375 60.5625 69.7739 60.5625 66.5C60.5625 63.2261 63.2261 60.5625 66.5 60.5625ZM62.9375 32.0625H72.4375V43.9375H62.9375V32.0625ZM52.25 48.6875V51.0625C52.25 51.7168 51.718 52.25 51.0625 52.25H24.9375C24.282 52.25 23.75 51.7168 23.75 51.0625V48.6875C23.75 48.0332 24.282 47.5 24.9375 47.5H28.5H47.5H51.0625C51.718 47.5 52.25 48.0332 52.25 48.6875ZM48.6875 43.9375C48.6875 44.5918 48.1555 45.125 47.5 45.125H28.5C27.8445 45.125 27.3125 44.5918 27.3125 43.9375C27.3125 43.2832 27.8445 42.75 28.5 42.75H47.5C48.1555 42.75 48.6875 43.2832 48.6875 43.9375ZM52.25 36.8125V39.1875C52.25 39.8418 51.718 40.375 51.0625 40.375H47.5H28.5H24.9375C24.282 40.375 23.75 39.8418 23.75 39.1875V36.8125C23.75 36.1582 24.282 35.625 24.9375 35.625H28.5H47.5H51.0625C51.718 35.625 52.25 36.1582 52.25 36.8125ZM48.6875 32.0625C48.6875 32.7168 48.1555 33.25 47.5 33.25H28.5C27.8445 33.25 27.3125 32.7168 27.3125 32.0625C27.3125 31.4082 27.8445 30.875 28.5 30.875H47.5C48.1555 30.875 48.6875 31.4082 48.6875 32.0625ZM52.25 24.9375V27.3125C52.25 27.9668 51.718 28.5 51.0625 28.5H47.5H28.5H24.9375C24.282 28.5 23.75 27.9668 23.75 27.3125V24.9375C23.75 24.2832 24.282 23.75 24.9375 23.75H51.0625C51.718 23.75 52.25 24.2832 52.25 24.9375ZM53.4375 3.5625H72.4375V15.4375H53.4375V3.5625Z" fill="white"/>
<path d="M5.9375 64.125C5.9375 63.4692 6.46916 62.9375 7.125 62.9375C7.78084 62.9375 8.3125 63.4692 8.3125 64.125C8.3125 64.7808 7.78084 65.3125 7.125 65.3125C6.46916 65.3125 5.9375 64.7808 5.9375 64.125Z" fill="white"/>
<path d="M10.6875 64.125C10.6875 63.4692 11.2192 62.9375 11.875 62.9375C12.5308 62.9375 13.0625 63.4692 13.0625 64.125C13.0625 64.7808 12.5308 65.3125 11.875 65.3125C11.2192 65.3125 10.6875 64.7808 10.6875 64.125Z" fill="white"/>
<path d="M15.4375 64.125C15.4375 63.4692 15.9692 62.9375 16.625 62.9375H19C19.6558 62.9375 20.1875 63.4692 20.1875 64.125C20.1875 64.7808 19.6558 65.3125 19 65.3125H16.625C15.9692 65.3125 15.4375 64.7808 15.4375 64.125Z" fill="white"/>
<path d="M5.9375 68.875C5.9375 68.2192 6.46916 67.6875 7.125 67.6875H19C19.6558 67.6875 20.1875 68.2192 20.1875 68.875C20.1875 69.5308 19.6558 70.0625 19 70.0625H7.125C6.46916 70.0625 5.9375 69.5308 5.9375 68.875Z" fill="white"/>
<path d="M55.8125 7.125C55.8125 6.46916 56.3442 5.9375 57 5.9375H68.875C69.5308 5.9375 70.0625 6.46916 70.0625 7.125C70.0625 7.78084 69.5308 8.3125 68.875 8.3125H57C56.3442 8.3125 55.8125 7.78084 55.8125 7.125Z" fill="white"/>
<path d="M55.8125 11.875C55.8125 11.2192 56.3442 10.6875 57 10.6875H68.875C69.5308 10.6875 70.0625 11.2192 70.0625 11.875C70.0625 12.5308 69.5308 13.0625 68.875 13.0625H57C56.3442 13.0625 55.8125 12.5308 55.8125 11.875Z" fill="white"/>
<path d="M9.5 10.6875C9.5 10.0317 10.0317 9.5 10.6875 9.5H15.4375C16.0933 9.5 16.625 10.0317 16.625 10.6875C16.625 11.3433 16.0933 11.875 15.4375 11.875H10.6875C10.0317 11.875 9.5 11.3433 9.5 10.6875Z" fill="white"/>
<path d="M65.3125 35.625C65.3125 34.9692 65.8442 34.4375 66.5 34.4375H68.875C69.5308 34.4375 70.0625 34.9692 70.0625 35.625C70.0625 36.2808 69.5308 36.8125 68.875 36.8125H66.5C65.8442 36.8125 65.3125 36.2808 65.3125 35.625Z" fill="white"/>
<path d="M65.3125 40.375C65.3125 39.7192 65.8442 39.1875 66.5 39.1875H68.875C69.5308 39.1875 70.0625 39.7192 70.0625 40.375C70.0625 41.0308 69.5308 41.5625 68.875 41.5625H66.5C65.8442 41.5625 65.3125 41.0308 65.3125 40.375Z" fill="white"/>
</svg>
