<svg width="75" height="76" viewBox="0 0 75 76" fill="none" xmlns="http://www.w3.org/2000/svg">
<path d="M42.8489 36.3474C43.4224 35.6163 43.7365 34.7107 43.7406 33.7766V33.3611C43.7263 31.2035 42.1114 29.403 39.9938 29.1838V27.8717C39.9938 27.1725 39.4346 26.6057 38.745 26.6057C38.0553 26.6057 37.4961 27.1725 37.4961 27.8717V29.1377H34.9982V27.8717C34.9982 27.1725 34.4391 26.6057 33.7493 26.6057C33.0595 26.6057 32.5004 27.1725 32.5004 27.8717V29.1377H31.2516C30.5618 29.1377 30.0027 29.7044 30.0027 30.4037C30.0027 31.1029 30.5619 31.6697 31.2516 31.6697H39.5403C40.4708 31.661 41.2325 32.4177 41.2429 33.361V33.7764C41.2325 34.7197 40.4707 35.4764 39.5403 35.4677H34.9983C34.9983 34.7685 34.4392 34.2018 33.7495 34.2018C33.0597 34.2018 32.5006 34.7685 32.5006 35.4677V39.2659C32.5006 39.9651 33.0597 40.5318 33.7495 40.5318C34.4392 40.5318 34.9983 39.9651 34.9983 39.2659V37.9999H40.0465C41.379 37.9837 42.4729 39.0638 42.4919 40.4145V40.6493C42.4729 42 41.379 43.0801 40.0465 43.064H31.2516C30.5618 43.064 30.0027 43.6307 30.0027 44.3299C30.0027 45.0292 30.5619 45.5959 31.2516 45.5959H32.5004V46.8619C32.5004 47.5611 33.0595 48.1279 33.7493 48.1279C34.4391 48.1279 34.9982 47.5611 34.9982 46.8619V45.5959H37.4961V46.8619C37.4961 47.5611 38.0552 48.1279 38.745 48.1279C39.4348 48.1279 39.9938 47.5611 39.9938 46.8619V45.5959H40.0462C42.7575 45.6105 44.9689 43.3976 44.9895 40.6492V40.4143C44.9847 38.7831 44.1831 37.26 42.8489 36.3474Z" fill="#F7F7F7"/>
<path d="M36.6091 23.7065C36.8485 23.9377 37.1652 24.0687 37.4958 24.0737C37.5752 24.0714 37.6543 24.0629 37.7325 24.0484C37.8153 24.0362 37.8957 24.0105 37.9703 23.9724C38.047 23.947 38.1189 23.9083 38.1826 23.858C38.2569 23.8079 38.3204 23.7573 38.3826 23.7065C38.4928 23.5834 38.5815 23.442 38.6449 23.2886C38.7089 23.1364 38.7428 22.973 38.7449 22.8076C38.7422 22.472 38.6125 22.1502 38.3826 21.9087C38.3204 21.8581 38.257 21.8073 38.1826 21.7566C38.1189 21.7063 38.047 21.6676 37.9703 21.6422C37.8957 21.6039 37.8153 21.5784 37.7325 21.5668C37.3256 21.49 36.907 21.6173 36.6092 21.9087C36.5553 21.9688 36.5053 22.0321 36.4592 22.0984C36.4118 22.1687 36.374 22.2453 36.3469 22.3259C36.3109 22.3978 36.2855 22.4747 36.2713 22.5539C36.2571 22.6377 36.2489 22.7224 36.2468 22.8074C36.2489 22.9729 36.2828 23.1362 36.3468 23.2884C36.4102 23.442 36.4989 23.5832 36.6091 23.7065Z" fill="#F7F7F7"/>
<path d="M38.3827 52.2935C38.3205 52.2429 38.2572 52.1922 38.1827 52.1414C38.119 52.0911 38.0471 52.0524 37.9704 52.027C37.8958 51.9888 37.8154 51.9632 37.7326 51.9517C37.3253 51.8684 36.9039 51.9966 36.6093 52.2935C36.4991 52.4165 36.4104 52.5576 36.347 52.7108C36.2829 52.8632 36.249 53.0269 36.2471 53.1924C36.2491 53.2772 36.2573 53.3617 36.2715 53.4452C36.2856 53.5246 36.3112 53.6015 36.3472 53.6733C36.3741 53.7541 36.4119 53.8308 36.4594 53.9015C36.5058 53.9676 36.5559 54.031 36.6095 54.0912C36.8489 54.3224 37.1656 54.4534 37.4962 54.4584C37.5756 54.456 37.6547 54.4476 37.7329 54.4331C37.8157 54.4209 37.8961 54.3952 37.9707 54.3569C38.0474 54.3316 38.1193 54.2928 38.1829 54.2425C38.2573 54.1924 38.3208 54.1418 38.383 54.0911C38.613 53.8495 38.7426 53.5279 38.7453 53.1923C38.7434 53.0267 38.7094 52.8631 38.6453 52.7107C38.5815 52.5576 38.4929 52.4165 38.3827 52.2935Z" fill="#F7F7F7"/>
<path d="M32.3747 24.9848C32.7032 24.9882 33.0191 24.8556 33.2491 24.6176C33.3067 24.5575 33.3608 24.4942 33.4113 24.4279C33.4491 24.3518 33.487 24.2887 33.5236 24.2127C33.5492 24.1366 33.5735 24.0484 33.5992 23.9722C33.6134 23.8884 33.6215 23.8037 33.6237 23.7188C33.6226 23.3843 33.4874 23.0646 33.2493 22.833C33.1959 22.7684 33.1329 22.7128 33.0627 22.668C32.9993 22.6303 32.9248 22.5919 32.8505 22.5542C32.7748 22.5288 32.687 22.5036 32.6126 22.4781C32.203 22.3996 31.7815 22.5325 31.4882 22.833C31.1306 23.1941 31.0241 23.7387 31.2186 24.2108C31.4128 24.6829 31.8699 24.9888 32.3747 24.9848Z" fill="#F7F7F7"/>
<path d="M43.5027 51.3818C43.4464 51.3205 43.3837 51.2655 43.3161 51.2174C43.2404 51.1791 43.1782 51.1413 43.1039 51.103C43.0262 51.0763 42.9467 51.0554 42.866 51.04C42.7059 51.0023 42.5395 51.0023 42.3794 51.04C42.2988 51.0551 42.2193 51.0763 42.1416 51.103C42.0672 51.1413 41.9916 51.1791 41.9294 51.2174C41.8588 51.2622 41.7956 51.3177 41.7416 51.3818C41.6214 51.4943 41.5276 51.6327 41.4672 51.7867C41.4044 51.9438 41.3704 52.1112 41.3672 52.2806C41.3688 52.6152 41.5039 52.9349 41.7416 53.1671C41.7956 53.2312 41.859 53.2867 41.9294 53.3315C41.9916 53.3691 42.0672 53.4076 42.1416 53.4453C42.2189 53.4764 42.2983 53.5019 42.3794 53.5214C42.4574 53.5362 42.5366 53.5447 42.6161 53.5467C42.6999 53.5448 42.7835 53.5362 42.866 53.5214C42.947 53.5018 43.0265 53.4764 43.1039 53.4453C43.1782 53.4076 43.2404 53.3691 43.3161 53.3315C43.3837 53.2834 43.4464 53.2283 43.5027 53.1671C43.7376 52.934 43.8685 52.6138 43.8649 52.2806C43.8664 52.1119 43.8371 51.9444 43.7783 51.7867C43.7124 51.6352 43.6189 51.4978 43.5027 51.3818Z" fill="#F7F7F7"/>
<path d="M26.7045 26.8462C26.7423 26.9223 26.7802 26.9983 26.8179 27.0613C26.8652 27.1342 26.9195 27.2021 26.9801 27.2641C27.095 27.3779 27.2304 27.4681 27.3789 27.53C27.5333 27.5963 27.6992 27.6307 27.8667 27.6313C28.1934 27.6247 28.5056 27.4935 28.7412 27.2641C28.8018 27.2023 28.8561 27.1343 28.9034 27.0613C28.94 26.9983 28.9777 26.9223 29.0157 26.8462C29.0401 26.7701 29.0656 26.6941 29.09 26.6057C29.1051 26.5265 29.1137 26.4459 29.1156 26.3652C29.1137 26.2802 29.1052 26.1953 29.09 26.1118C29.0656 26.0357 29.0399 25.9473 29.0157 25.8712C28.9779 25.795 28.94 25.732 28.9034 25.656C28.8529 25.5896 28.7987 25.5261 28.7412 25.4657C28.6233 25.352 28.4882 25.2581 28.3412 25.1875C28.0327 25.0608 27.6874 25.0608 27.3789 25.1875C27.2323 25.2581 27.0976 25.352 26.9801 25.4657C26.9226 25.5261 26.8684 25.5896 26.8179 25.656C26.7802 25.7321 26.7423 25.7952 26.7045 25.8712C26.6801 25.9473 26.6546 26.0355 26.6302 26.1117C26.616 26.1955 26.6078 26.2802 26.6057 26.3651C26.6078 26.4458 26.616 26.5262 26.63 26.6056C26.6545 26.6941 26.6801 26.7701 26.7045 26.8462Z" fill="#F7F7F7"/>
<path d="M47.8239 48.5838C47.7559 48.5407 47.6851 48.5027 47.6116 48.47C47.5347 48.4389 47.4556 48.4134 47.375 48.3939C47.0078 48.3203 46.6274 48.4166 46.3374 48.6567C46.0475 48.8966 45.8783 49.2552 45.876 49.6347C45.8792 49.804 45.913 49.9712 45.9759 50.128C46.0362 50.2823 46.1301 50.4209 46.2504 50.5335C46.4804 50.7713 46.7963 50.904 47.1249 50.9007C47.209 50.9048 47.2933 50.8964 47.3748 50.8753C47.4552 50.8599 47.5342 50.8387 47.6115 50.8117C47.6851 50.7747 47.7559 50.7326 47.8237 50.6856C47.8921 50.6427 47.9551 50.5915 48.0115 50.5335C48.128 50.4176 48.2211 50.2798 48.2859 50.128C48.345 49.9704 48.3749 49.8032 48.3737 49.6347C48.3745 49.2984 48.2443 48.9754 48.0115 48.7358C47.9494 48.6853 47.8861 48.6346 47.8239 48.5838Z" fill="#F7F7F7"/>
<path d="M23.6321 29.5049C23.3993 29.7445 23.2692 30.0675 23.2699 30.4038C23.2677 30.5683 23.2976 30.7318 23.3577 30.8848C23.4255 31.0387 23.5183 31.1799 23.6321 31.3027C23.8704 31.5357 24.1878 31.667 24.5189 31.6699C25.0236 31.668 25.4774 31.3581 25.669 30.8848C25.7327 30.7326 25.7662 30.5692 25.7676 30.404C25.7644 30.0661 25.6298 29.7432 25.3933 29.505C24.8972 29.0364 24.1281 29.0364 23.6321 29.5049Z" fill="#F7F7F7"/>
<path d="M51.3584 44.6972C51.0638 44.4004 50.6424 44.2722 50.2351 44.3554C50.1523 44.3668 50.0718 44.3924 49.9973 44.4308C49.9206 44.4562 49.8487 44.4949 49.7851 44.5452C49.715 44.5855 49.6516 44.6369 49.5973 44.6972C49.3618 44.9355 49.2295 45.2588 49.2295 45.596C49.2295 45.9333 49.3618 46.2567 49.5973 46.4948C49.6516 46.5551 49.7151 46.6061 49.7851 46.6463C49.8487 46.6966 49.9206 46.7353 49.9973 46.7607C50.0719 46.7991 50.1523 46.8248 50.2351 46.8368C50.3133 46.8513 50.3923 46.8598 50.4718 46.8622C50.803 46.8598 51.1205 46.7283 51.3586 46.495C51.4688 46.3718 51.5575 46.2304 51.6209 46.077C51.7542 45.7704 51.7542 45.4211 51.6209 45.1146C51.5573 44.9613 51.4686 44.8202 51.3584 44.6972Z" fill="#F7F7F7"/>
<path d="M22.7331 36.6326C23.0671 36.6317 23.3866 36.4946 23.6199 36.2525C23.8495 36.016 23.9794 35.6983 23.9821 35.3666C23.9868 35.1963 23.9526 35.0273 23.8822 34.8727C23.8217 34.7216 23.7326 34.5841 23.6199 34.4678C23.1239 33.9993 22.3548 33.9993 21.8588 34.4678C21.7385 34.5803 21.6446 34.7185 21.5843 34.8727C21.5202 35.0293 21.4863 35.197 21.4844 35.3666C21.5009 36.0585 22.0503 36.6156 22.7331 36.6326Z" fill="#F7F7F7"/>
<path d="M53.4076 40.1519C53.3823 40.0741 53.3438 40.0013 53.2942 39.9368C53.2501 39.8654 53.1954 39.8013 53.132 39.747C52.8368 39.4506 52.4178 39.3182 52.0087 39.3921C51.933 39.4175 51.8465 39.4427 51.7709 39.4682C51.6965 39.5065 51.633 39.5443 51.5586 39.5826C51.4932 39.6339 51.4304 39.6888 51.3709 39.747C51.1365 39.9802 51.0058 40.3 51.0086 40.6329C51.0044 40.7182 51.013 40.8036 51.0342 40.8863C51.0492 40.9679 51.0701 41.0482 51.0964 41.1268C51.1308 41.2027 51.173 41.2749 51.222 41.3419C51.2602 41.4137 51.3106 41.4781 51.3709 41.5323C51.4307 41.5903 51.4934 41.6452 51.5586 41.6967C51.633 41.7343 51.6965 41.7728 51.7709 41.8104C51.8486 41.8375 51.928 41.8587 52.0087 41.8741C52.0901 41.8946 52.1738 41.9029 52.2575 41.8989C52.5861 41.9026 52.9019 41.7702 53.132 41.5323C53.1926 41.4748 53.2469 41.4111 53.2942 41.3419C53.3413 41.2757 53.3795 41.2033 53.4076 41.1268C53.4433 41.0505 53.4685 40.9697 53.4819 40.8863C53.4961 40.8025 53.5043 40.7177 53.5064 40.6329C53.5043 40.5522 53.4961 40.4718 53.4819 40.3924C53.4685 40.309 53.4433 40.2281 53.4076 40.1519Z" fill="#F7F7F7"/>
<path d="M23.6199 41.5323C23.7324 41.4156 23.8216 41.278 23.8822 41.1268C23.9526 40.9722 23.9868 40.803 23.9821 40.6329C23.9794 40.3011 23.8494 39.9835 23.6199 39.747C23.1262 39.2722 22.3523 39.2722 21.8588 39.747C21.6211 39.9789 21.4861 40.2985 21.4844 40.6329C21.4863 40.8025 21.5202 40.9701 21.5843 41.1268C21.6448 41.2809 21.7386 41.4195 21.8588 41.5323C22.0891 41.7698 22.4047 41.9021 22.7333 41.8989C22.8174 41.9029 22.9016 41.8946 22.9832 41.8741C23.0595 41.8587 23.1346 41.8373 23.2076 41.8104C23.2833 41.7728 23.3576 41.7343 23.4333 41.6966C23.4986 41.6455 23.5608 41.5906 23.6199 41.5323Z" fill="#F7F7F7"/>
<path d="M51.3706 34.4678C51.1358 34.706 51.0053 35.0299 51.0084 35.3667C51.0041 35.4477 51.0129 35.5289 51.034 35.6072C51.0474 35.6891 51.0682 35.7696 51.0962 35.8477C51.1306 35.9236 51.1727 35.9958 51.2218 36.0628C51.2567 36.1365 51.3077 36.2014 51.3706 36.2526C51.4303 36.3109 51.493 36.3661 51.5584 36.4176C51.6327 36.4552 51.6963 36.4937 51.7706 36.5313C51.8463 36.5567 51.9328 36.5819 52.0084 36.6075C52.0907 36.622 52.1738 36.6305 52.2572 36.6328C52.5876 36.6318 52.9033 36.4945 53.1317 36.2527C53.1951 36.1983 53.2499 36.1343 53.2939 36.063C53.3435 35.9984 53.382 35.9256 53.4073 35.8478C53.4448 35.7723 53.47 35.691 53.4817 35.6073C53.4959 35.528 53.5039 35.4476 53.5061 35.3668C53.5041 35.2818 53.4959 35.1971 53.4817 35.1134C53.4681 35.0302 53.4431 34.9492 53.4073 34.8729C53.3792 34.7964 53.341 34.724 53.2939 34.6578C53.2465 34.589 53.1922 34.5255 53.1317 34.4681C52.837 34.1712 52.4158 34.043 52.0084 34.1262C51.9276 34.1412 51.8482 34.1623 51.7706 34.1893C51.6963 34.2276 51.6327 34.2652 51.5584 34.3031C51.493 34.3543 51.4303 34.4093 51.3706 34.4678Z" fill="#F7F7F7"/>
<path d="M23.632 44.6973C23.149 45.1965 23.149 45.9957 23.632 46.495C23.8704 46.7279 24.1877 46.8592 24.5188 46.8622C25.0256 46.8637 25.4829 46.5536 25.6749 46.0781C25.8669 45.6026 25.7555 45.0566 25.3933 44.6973C24.8971 44.2286 24.128 44.2286 23.632 44.6973Z" fill="#F7F7F7"/>
<path d="M50.2351 29.1631C50.1523 29.1746 50.0718 29.2001 49.9973 29.2385C49.9206 29.2639 49.8487 29.3026 49.7851 29.3529C49.7179 29.3974 49.655 29.4483 49.5973 29.505C49.5396 29.5649 49.4855 29.6284 49.4351 29.6947C49.3883 29.7654 49.3505 29.8418 49.3229 29.9222C49.292 29.9961 49.2672 30.0723 49.2485 30.1504C49.234 30.234 49.2254 30.3187 49.2229 30.4038C49.2269 30.7416 49.3612 31.0643 49.5973 31.3027C49.6548 31.3592 49.7177 31.41 49.7851 31.4542C49.8487 31.5045 49.9206 31.5432 49.9973 31.5686C50.0719 31.607 50.1523 31.6327 50.2351 31.6447C50.3133 31.6592 50.3923 31.6677 50.4718 31.67C50.5556 31.6677 50.6392 31.6592 50.7218 31.6447C50.7998 31.6306 50.8754 31.6049 50.9461 31.5686C51.026 31.5408 51.1019 31.5022 51.1718 31.4542C51.234 31.404 51.2962 31.3534 51.3584 31.3027C51.412 31.2425 51.462 31.179 51.5084 31.1129C51.556 31.0425 51.5936 30.9658 51.6207 30.8848C51.6567 30.8128 51.6822 30.7359 51.6964 30.6566C51.7289 30.4894 51.7289 30.3174 51.6964 30.1504C51.6823 30.071 51.6568 29.9941 51.6207 29.9222C51.5936 29.8416 51.5559 29.7651 51.5084 29.6947C51.4623 29.6284 51.4123 29.5651 51.3584 29.505C51.0604 29.2136 50.642 29.0863 50.2351 29.1631Z" fill="#F7F7F7"/>
<path d="M29.0157 49.1538C28.9779 49.0777 28.94 49.0017 28.9034 48.9381C28.8593 48.8667 28.8046 48.8026 28.7412 48.7483C28.63 48.6265 28.4933 48.5314 28.3412 48.4701C28.0327 48.3434 27.6874 48.3434 27.3789 48.4701C27.2272 48.5314 27.0907 48.6265 26.9801 48.7483C26.9167 48.8028 26.862 48.8667 26.8179 48.9381C26.7802 49.0017 26.7423 49.0778 26.7045 49.1538C26.6801 49.2292 26.6546 49.3053 26.6302 49.3943C26.616 49.4737 26.6079 49.5541 26.6057 49.6348C26.6066 49.9732 26.7415 50.2971 26.9801 50.5337C27.0943 50.6515 27.2296 50.7459 27.3789 50.8119C27.5341 50.8744 27.6999 50.9046 27.8667 50.9009C28.0292 50.9035 28.1905 50.8732 28.3412 50.8119C28.4908 50.7459 28.6266 50.6515 28.7412 50.5337C28.9794 50.2968 29.1142 49.9731 29.1156 49.6348C29.1137 49.5541 29.1051 49.4737 29.09 49.3943C29.0656 49.3053 29.0399 49.2292 29.0157 49.1538Z" fill="#F7F7F7"/>
<path d="M46.2505 27.2511C46.4793 27.4925 46.7948 27.6297 47.125 27.6312C47.2089 27.6288 47.2924 27.6203 47.375 27.6058C47.4569 27.5919 47.5366 27.5662 47.6117 27.5297C47.6873 27.502 47.7587 27.4634 47.8239 27.4153C47.8896 27.3643 47.9524 27.3094 48.0116 27.2509C48.128 27.1352 48.2212 26.9977 48.2861 26.846C48.4687 26.3711 48.3616 25.8318 48.0116 25.4657C47.9554 25.4077 47.8924 25.3568 47.8239 25.3142C47.7561 25.2669 47.6853 25.2246 47.6117 25.1875C47.5344 25.1605 47.4553 25.1393 47.375 25.1238C46.9222 25.0252 46.4528 25.1909 46.1585 25.5533C45.864 25.9158 45.7937 26.4144 45.9761 26.846C46.0365 27.0002 46.1304 27.1386 46.2505 27.2511Z" fill="#F7F7F7"/>
<path d="M33.249 51.3818C32.753 50.9133 31.9838 50.9133 31.4878 51.3818C31.3715 51.4977 31.2784 51.6351 31.2134 51.7867C31.1533 51.9441 31.1234 52.1117 31.1256 52.2806C31.1234 52.4451 31.1533 52.6086 31.2134 52.7616C31.2784 52.9133 31.3715 53.051 31.4878 53.167C31.7184 53.4096 32.0362 53.5466 32.3685 53.5466C32.7007 53.5466 33.0186 53.4095 33.2491 53.167C33.3655 53.051 33.4585 52.9133 33.5235 52.7616C33.5882 52.6096 33.6222 52.4461 33.6235 52.2806C33.6209 52.111 33.5869 51.9435 33.5235 51.7867C33.4585 51.6351 33.3653 51.4975 33.249 51.3818Z" fill="#F7F7F7"/>
<path d="M41.9293 24.7826C41.9916 24.8203 42.0672 24.858 42.1416 24.8964C42.2191 24.9234 42.2986 24.9445 42.3794 24.9595C42.4565 24.9804 42.5363 24.989 42.6161 24.9848C42.7002 24.989 42.7845 24.9805 42.866 24.9595C42.9467 24.9443 43.0262 24.9233 43.1039 24.8964C43.1782 24.8581 43.2404 24.8203 43.3161 24.7826C43.384 24.7345 43.4465 24.6792 43.5027 24.6176C43.9857 24.1234 43.9857 23.3272 43.5027 22.833C43.4465 22.7714 43.384 22.716 43.3161 22.668C43.2479 22.6255 43.1769 22.5876 43.1039 22.5542C43.0264 22.5235 42.947 22.498 42.866 22.4781C42.7048 22.4527 42.5407 22.4527 42.3794 22.4781C42.2985 22.4978 42.219 22.5232 42.1416 22.5542C42.0672 22.5919 41.9916 22.6303 41.9293 22.668C41.8587 22.7128 41.7953 22.7686 41.7416 22.833C41.5023 23.0665 41.3672 23.3886 41.3672 23.7254C41.3672 24.062 41.5024 24.3842 41.7416 24.6178C41.7953 24.6822 41.8587 24.7378 41.9293 24.7826Z" fill="#F7F7F7"/>
<path d="M68.7202 40.5321C70.099 40.5305 71.2165 39.3979 71.2181 38V34.0221C73.6532 33.389 75.2422 31.017 74.9249 28.489C74.6076 25.9611 72.4831 24.0682 69.9692 24.0736C67.4554 24.0682 65.3308 25.9612 65.0135 28.489C64.6962 31.017 66.2852 33.3889 68.7203 34.0221V38H58.7289C58.7442 32.2888 56.5048 26.8088 52.5098 22.7816C51.7246 21.9968 50.881 21.2744 49.9863 20.621V19.0095H67.4713C68.8502 19.0079 69.9676 17.8753 69.9692 16.4774V13.7656C72.4051 13.1281 73.9932 10.754 73.6762 8.22422C73.3592 5.69433 71.2359 3.7981 68.7202 3.7981C66.2044 3.7981 64.0814 5.69433 63.7643 8.22408C63.4473 10.7538 65.0355 13.1279 67.4713 13.7654V16.4772H49.9863C48.6117 16.4792 47.4965 17.6054 47.4896 18.9988C44.786 17.5446 41.8022 16.705 38.746 16.5389V13.9454H43.7416C45.1205 13.9438 46.2379 12.811 46.2395 11.4133V9.96749C48.6754 9.32998 50.2635 6.95587 49.9465 4.42612C49.6295 1.89623 47.5063 0 44.9906 0C42.475 0 40.3518 1.89623 40.0348 4.42597C39.7178 6.95572 41.3059 9.32983 43.7418 9.96734V11.4131H38.7461C37.3673 11.4148 36.2498 12.5475 36.2482 13.9453V16.5389C34.5541 16.6297 32.877 16.926 31.2526 17.4217V7.61519C31.251 6.21746 30.1335 5.08471 28.7547 5.08308H16.0881C15.4592 2.61387 13.1171 1.00397 10.6216 1.32533C8.12588 1.64668 6.25527 3.79899 6.25527 6.34921C6.25527 8.89943 8.12588 11.0516 10.6214 11.3729C13.117 11.6943 15.459 10.0844 16.0879 7.61519H28.7545V18.3993C23.2001 20.9341 18.9896 25.7685 17.1969 31.6698H6.27401V25.1599C8.70985 24.5224 10.298 22.1483 9.98097 19.6185C9.66396 17.0886 7.54074 15.1924 5.02498 15.1924C2.50937 15.1924 0.386152 17.0886 0.0691392 19.6184C-0.247873 22.1481 1.34026 24.5222 3.77611 25.1597V31.6696C3.77772 33.0674 4.89516 34.2001 6.27401 34.2018H16.61C16.3855 35.4551 16.2701 36.726 16.2653 37.9999H13.7676C12.3887 38.0015 11.2713 39.1342 11.2697 40.532V58.2565H9.8434C9.21449 55.7873 6.87247 54.1774 4.37691 54.4987C1.88135 54.8201 0.0107422 56.9724 0.0107422 59.5225C0.0107422 62.0725 1.88135 64.2248 4.37691 64.5462C6.87247 64.8676 9.21449 63.2577 9.8434 60.7885H11.2697C12.6485 60.7868 13.7659 59.6541 13.7676 58.2563V40.5321H16.4256C17.2847 48.0251 21.9674 54.5079 28.7547 57.6007V69.6508H21.0837C20.4548 67.1816 18.1128 65.5717 15.6172 65.893C13.1217 66.2144 11.2511 68.3667 11.2511 70.9168C11.2511 73.4668 13.1217 75.6191 15.6172 75.9405C18.1128 76.2619 20.4548 74.652 21.0837 72.1828H28.7547C30.1335 72.1811 31.251 71.0485 31.2526 69.6506V58.5778C32.877 59.0735 34.5543 59.3698 36.2482 59.4606V62.0543C36.2498 63.452 37.3673 64.5848 38.7461 64.5864H47.4886V66.0322C45.0527 66.6697 43.4646 69.0438 43.7816 71.5736C44.0986 74.1033 46.2218 75.9996 48.7374 75.9996C51.253 75.9996 53.3763 74.1033 53.6933 71.5736C54.0103 69.0438 52.4221 66.6697 49.9863 66.0322V64.5864C49.9847 63.1887 48.8672 62.0559 47.4884 62.0543H38.746V59.4606C43.9367 59.1732 48.8391 56.9497 52.5098 53.2181C53.9942 51.7168 55.2518 50.0016 56.242 48.128H66.2224V60.9681C63.7866 61.6056 62.1985 63.9798 62.5155 66.5095C62.8325 69.0392 64.9557 70.9355 67.4713 70.9355C69.9869 70.9355 72.1101 69.0392 72.4272 66.5095C72.7442 63.9798 71.156 61.6056 68.7202 60.9681V48.128C68.7186 46.7303 67.6011 45.5975 66.2223 45.5959H57.3505C57.9589 43.9646 58.368 42.264 58.5685 40.5318H68.7202V40.5321ZM67.4713 29.1378C67.4713 27.7393 68.5896 26.6057 69.9692 26.6057C71.3488 26.6057 72.4671 27.7393 72.4671 29.1378C72.4655 30.5355 71.3482 31.6683 69.9692 31.6699C68.5896 31.6698 67.4713 30.5361 67.4713 29.1378ZM66.2224 8.88118C66.2224 7.4827 67.3408 6.34906 68.7203 6.34906C70.0999 6.34906 71.2182 7.4827 71.2182 8.88118C71.2182 10.2796 70.0999 11.4133 68.7203 11.4133C67.3413 11.4117 66.2239 10.2789 66.2224 8.88118ZM42.4928 5.08308C42.4928 3.6846 43.6111 2.55096 44.9906 2.55096C46.3702 2.55096 47.4886 3.6846 47.4886 5.08308C47.4886 6.48155 46.3702 7.61519 44.9906 7.61519C43.6118 7.61356 42.4944 6.48081 42.4928 5.08308ZM11.2697 8.88118C9.89008 8.88118 8.77176 7.74753 8.77176 6.34906C8.77176 4.95059 9.89008 3.81694 11.2697 3.81694C12.6492 3.81694 13.7676 4.95059 13.7676 6.34906C13.7659 7.74694 12.6485 8.87955 11.2697 8.88118ZM5.02498 22.8076C3.64614 22.806 2.52869 21.6732 2.52708 20.2755C2.52708 18.877 3.64541 17.7434 5.02498 17.7434C6.40456 17.7434 7.52288 18.877 7.52288 20.2755C7.52288 21.674 6.40456 22.8076 5.02498 22.8076ZM5.02498 62.0546C3.64541 62.0546 2.52708 60.9209 2.52708 59.5225C2.52708 58.124 3.64541 56.9904 5.02498 56.9904C6.40456 56.9904 7.52288 58.124 7.52288 59.5225C7.52127 60.9204 6.40383 62.053 5.02498 62.0546ZM16.2653 73.4489C14.8857 73.4489 13.7674 72.3152 13.7674 70.9168C13.7674 69.5183 14.8857 68.3847 16.2653 68.3847C17.6449 68.3847 18.7632 69.5183 18.7632 70.9168C18.7616 72.3147 17.6443 73.4473 16.2653 73.4489ZM48.7374 68.3848C50.1163 68.3864 51.2337 69.519 51.2353 70.9169C51.2353 72.3154 50.117 73.449 48.7374 73.449C47.3578 73.449 46.2395 72.3154 46.2395 70.9169C46.2395 69.5185 47.3578 68.3848 48.7374 68.3848ZM50.7437 51.4281C44.4241 57.8338 34.5208 58.8222 27.0901 53.789C19.6595 48.7556 16.771 39.1025 20.1911 30.7327C23.6112 22.363 32.3874 17.6079 41.1527 19.3754C49.918 21.1428 56.2308 28.9406 56.2308 38C56.2444 43.0393 54.2686 47.8746 50.7437 51.4281ZM67.4713 63.3207C68.8502 63.3224 69.9676 64.4551 69.9692 65.8528C69.9692 67.2513 68.8509 68.385 67.4713 68.385C66.0917 68.385 64.9734 67.2513 64.9734 65.8528C64.9734 64.4544 66.0917 63.3207 67.4713 63.3207Z" fill="#F7F7F7"/>
</svg>
