<svg width="75" height="76" viewBox="0 0 75 76" fill="none" xmlns="http://www.w3.org/2000/svg">
<g clip-path="url(#clip0)">
<path d="M42.8487 36.3474C43.4223 35.6163 43.7363 34.7107 43.7404 33.7766V33.3611C43.7261 31.2035 42.1112 29.403 39.9937 29.1838V27.8717C39.9937 27.1725 39.4344 26.6057 38.7448 26.6057C38.0551 26.6057 37.4959 27.1725 37.4959 27.8717V29.1377H34.998V27.8717C34.998 27.1725 34.4389 26.6057 33.7491 26.6057C33.0593 26.6057 32.5003 27.1725 32.5003 27.8717V29.1377H31.2514C30.5616 29.1377 30.0025 29.7044 30.0025 30.4037C30.0025 31.1029 30.5617 31.6697 31.2514 31.6697H39.5401C40.4706 31.661 41.2323 32.4177 41.2427 33.361V33.7764C41.2323 34.7197 40.4705 35.4764 39.5401 35.4677H34.9982C34.9982 34.7685 34.4391 34.2018 33.7493 34.2018C33.0595 34.2018 32.5004 34.7685 32.5004 35.4677V39.2659C32.5004 39.9651 33.0595 40.5318 33.7493 40.5318C34.4391 40.5318 34.9982 39.9651 34.9982 39.2659V37.9999H40.0464C41.3788 37.9837 42.4727 39.0638 42.4917 40.4145V40.6493C42.4727 42 41.3788 43.0801 40.0464 43.064H31.2514C30.5616 43.064 30.0025 43.6307 30.0025 44.3299C30.0025 45.0292 30.5617 45.5959 31.2514 45.5959H32.5003V46.8619C32.5003 47.5611 33.0593 48.1279 33.7491 48.1279C34.4389 48.1279 34.998 47.5611 34.998 46.8619V45.5959H37.4959V46.8619C37.4959 47.5611 38.055 48.1279 38.7448 48.1279C39.4346 48.1279 39.9937 47.5611 39.9937 46.8619V45.5959H40.0461C42.7573 45.6105 44.9687 43.3976 44.9893 40.6492V40.4143C44.9845 38.7831 44.1829 37.26 42.8487 36.3474Z" fill="white"/>
<path d="M36.6089 23.7065C36.8484 23.9377 37.1651 24.0687 37.4957 24.0737C37.575 24.0714 37.6542 24.0629 37.7324 24.0484C37.8152 24.0362 37.8956 24.0105 37.9702 23.9724C38.0469 23.947 38.1188 23.9083 38.1824 23.858C38.2568 23.8079 38.3203 23.7573 38.3825 23.7065C38.4927 23.5834 38.5814 23.442 38.6448 23.2886C38.7087 23.1364 38.7427 22.973 38.7447 22.8076C38.7421 22.472 38.6124 22.1502 38.3825 21.9087C38.3203 21.8581 38.2569 21.8073 38.1824 21.7566C38.1188 21.7063 38.0469 21.6676 37.9702 21.6422C37.8956 21.6039 37.8152 21.5784 37.7324 21.5668C37.3255 21.49 36.9069 21.6173 36.6091 21.9087C36.5552 21.9688 36.5052 22.0321 36.4591 22.0984C36.4116 22.1687 36.3739 22.2453 36.3468 22.3259C36.3108 22.3978 36.2853 22.4747 36.2711 22.5539C36.257 22.6377 36.2488 22.7224 36.2467 22.8074C36.2488 22.9729 36.2827 23.1362 36.3467 23.2884C36.41 23.442 36.4987 23.5832 36.6089 23.7065Z" fill="white"/>
<path d="M38.3825 52.2935C38.3203 52.2429 38.257 52.1922 38.1825 52.1414C38.1188 52.0911 38.0469 52.0524 37.9703 52.027C37.8956 51.9888 37.8153 51.9632 37.7324 51.9517C37.3251 51.8684 36.9037 51.9966 36.6091 52.2935C36.4989 52.4165 36.4102 52.5576 36.3468 52.7108C36.2827 52.8632 36.2488 53.0269 36.2469 53.1924C36.2489 53.2772 36.2571 53.3617 36.2713 53.4452C36.2854 53.5246 36.311 53.6015 36.347 53.6733C36.3739 53.7541 36.4117 53.8308 36.4593 53.9015C36.5056 53.9676 36.5557 54.031 36.6093 54.0912C36.8487 54.3224 37.1654 54.4534 37.4961 54.4584C37.5754 54.456 37.6546 54.4476 37.7327 54.4331C37.8156 54.4209 37.8959 54.3952 37.9705 54.3569C38.0472 54.3316 38.1191 54.2928 38.1828 54.2425C38.2571 54.1924 38.3206 54.1418 38.3828 54.0911C38.6128 53.8495 38.7424 53.5279 38.7451 53.1923C38.7432 53.0267 38.7092 52.8631 38.6451 52.7107C38.5813 52.5576 38.4928 52.4165 38.3825 52.2935Z" fill="white"/>
<path d="M32.3745 24.9848C32.703 24.9882 33.0189 24.8556 33.249 24.6176C33.3065 24.5575 33.3606 24.4942 33.4111 24.4279C33.4489 24.3518 33.4868 24.2887 33.5234 24.2127C33.549 24.1366 33.5733 24.0484 33.5991 23.9722C33.6132 23.8884 33.6213 23.8037 33.6235 23.7188C33.6225 23.3843 33.4872 23.0646 33.2491 22.833C33.1957 22.7684 33.1328 22.7128 33.0625 22.668C32.9991 22.6303 32.9246 22.5919 32.8503 22.5542C32.7746 22.5288 32.6868 22.5036 32.6125 22.4781C32.2028 22.3996 31.7813 22.5325 31.488 22.833C31.1304 23.1941 31.0239 23.7387 31.2184 24.2108C31.4126 24.6829 31.8697 24.9888 32.3745 24.9848Z" fill="white"/>
<path d="M43.5025 51.3818C43.4462 51.3205 43.3835 51.2655 43.3159 51.2174C43.2402 51.1791 43.178 51.1413 43.1037 51.103C43.026 51.0763 42.9465 51.0554 42.8659 51.04C42.7057 51.0023 42.5393 51.0023 42.3792 51.04C42.2986 51.0551 42.2191 51.0763 42.1414 51.103C42.067 51.1413 41.9914 51.1791 41.9292 51.2174C41.8586 51.2622 41.7954 51.3177 41.7414 51.3818C41.6212 51.4943 41.5274 51.6327 41.467 51.7867C41.4042 51.9438 41.3702 52.1112 41.367 52.2806C41.3686 52.6152 41.5037 52.9349 41.7414 53.1671C41.7954 53.2312 41.8588 53.2867 41.9292 53.3315C41.9914 53.3691 42.067 53.4076 42.1414 53.4453C42.2187 53.4764 42.2981 53.5019 42.3792 53.5214C42.4572 53.5362 42.5364 53.5447 42.6159 53.5467C42.6997 53.5448 42.7833 53.5362 42.8659 53.5214C42.9468 53.5018 43.0263 53.4764 43.1037 53.4453C43.178 53.4076 43.2402 53.3691 43.3159 53.3315C43.3835 53.2834 43.4462 53.2283 43.5025 53.1671C43.7374 52.934 43.8683 52.6138 43.8648 52.2806C43.8662 52.1119 43.837 51.9444 43.7781 51.7867C43.7123 51.6352 43.6187 51.4978 43.5025 51.3818Z" fill="white"/>
<path d="M26.7043 26.8462C26.742 26.9223 26.7799 26.9983 26.8177 27.0613C26.865 27.1342 26.9193 27.2021 26.9799 27.2641C27.0947 27.3779 27.2301 27.4681 27.3787 27.53C27.5331 27.5963 27.6989 27.6307 27.8665 27.6313C28.1932 27.6247 28.5053 27.4935 28.741 27.2641C28.8016 27.2023 28.8559 27.1343 28.9032 27.0613C28.9397 26.9983 28.9775 26.9223 29.0154 26.8462C29.0398 26.7701 29.0653 26.6941 29.0898 26.6057C29.1048 26.5265 29.1135 26.4459 29.1154 26.3652C29.1135 26.2802 29.105 26.1953 29.0898 26.1118C29.0653 26.0357 29.0397 25.9473 29.0154 25.8712C28.9776 25.795 28.9397 25.732 28.9032 25.656C28.8527 25.5896 28.7985 25.5261 28.741 25.4657C28.623 25.352 28.4879 25.2581 28.341 25.1875C28.0325 25.0608 27.6872 25.0608 27.3787 25.1875C27.232 25.2581 27.0974 25.352 26.9799 25.4657C26.9223 25.5261 26.8682 25.5896 26.8177 25.656C26.7799 25.7321 26.742 25.7952 26.7043 25.8712C26.6798 25.9473 26.6544 26.0355 26.6299 26.1117C26.6157 26.1955 26.6075 26.2802 26.6055 26.3651C26.6075 26.4458 26.6157 26.5262 26.6298 26.6056C26.6542 26.6941 26.6798 26.7701 26.7043 26.8462Z" fill="white"/>
<path d="M47.8239 48.5838C47.7559 48.5407 47.6851 48.5027 47.6116 48.47C47.5347 48.4389 47.4556 48.4134 47.375 48.3939C47.0078 48.3203 46.6274 48.4166 46.3374 48.6567C46.0475 48.8966 45.8783 49.2552 45.876 49.6347C45.8792 49.804 45.913 49.9712 45.9759 50.128C46.0362 50.2823 46.1301 50.4209 46.2504 50.5335C46.4804 50.7713 46.7963 50.904 47.1249 50.9007C47.209 50.9048 47.2933 50.8964 47.3748 50.8753C47.4552 50.8599 47.5342 50.8387 47.6115 50.8117C47.6851 50.7747 47.7559 50.7326 47.8237 50.6856C47.8921 50.6427 47.9551 50.5915 48.0115 50.5335C48.128 50.4176 48.2211 50.2798 48.2859 50.128C48.345 49.9704 48.3749 49.8032 48.3737 49.6347C48.3745 49.2984 48.2443 48.9754 48.0115 48.7358C47.9494 48.6853 47.8861 48.6346 47.8239 48.5838Z" fill="white"/>
<path d="M23.6319 29.5049C23.399 29.7445 23.2689 30.0675 23.2696 30.4038C23.2674 30.5683 23.2973 30.7318 23.3575 30.8848C23.4252 31.0387 23.518 31.1799 23.6319 31.3027C23.8702 31.5357 24.1876 31.667 24.5187 31.6699C25.0233 31.668 25.4772 31.3581 25.6687 30.8848C25.7324 30.7326 25.7659 30.5692 25.7674 30.404C25.7642 30.0661 25.6295 29.7432 25.393 29.505C24.897 29.0364 24.1279 29.0364 23.6319 29.5049Z" fill="white"/>
<path d="M51.3583 44.6972C51.0637 44.4004 50.6423 44.2722 50.235 44.3554C50.1522 44.3668 50.0717 44.3924 49.9972 44.4308C49.9205 44.4562 49.8486 44.4949 49.7849 44.5452C49.7148 44.5855 49.6515 44.6369 49.5972 44.6972C49.3617 44.9355 49.2294 45.2588 49.2294 45.596C49.2294 45.9333 49.3617 46.2567 49.5972 46.4948C49.6515 46.5551 49.715 46.6061 49.7849 46.6463C49.8486 46.6966 49.9205 46.7353 49.9972 46.7607C50.0718 46.7991 50.1522 46.8248 50.235 46.8368C50.3132 46.8513 50.3922 46.8598 50.4717 46.8622C50.8029 46.8598 51.1203 46.7283 51.3585 46.495C51.4687 46.3718 51.5574 46.2304 51.6207 46.077C51.7541 45.7704 51.7541 45.4211 51.6207 45.1146C51.5572 44.9613 51.4685 44.8202 51.3583 44.6972Z" fill="white"/>
<path d="M22.733 36.6326C23.067 36.6317 23.3865 36.4946 23.6198 36.2525C23.8494 36.016 23.9792 35.6983 23.982 35.3666C23.9867 35.1963 23.9524 35.0273 23.882 34.8727C23.8216 34.7216 23.7325 34.5841 23.6198 34.4678C23.1238 33.9993 22.3546 33.9993 21.8586 34.4678C21.7383 34.5803 21.6445 34.7185 21.5842 34.8727C21.5201 35.0293 21.4862 35.197 21.4843 35.3666C21.5008 36.0585 22.0502 36.6156 22.733 36.6326Z" fill="white"/>
<path d="M53.4073 40.1519C53.382 40.0741 53.3435 40.0013 53.2939 39.9368C53.2499 39.8654 53.1951 39.8013 53.1317 39.747C52.8365 39.4506 52.4175 39.3182 52.0084 39.3921C51.9328 39.4175 51.8463 39.4427 51.7706 39.4682C51.6963 39.5065 51.6327 39.5443 51.5584 39.5826C51.493 39.6339 51.4302 39.6888 51.3706 39.747C51.1363 39.9802 51.0056 40.3 51.0084 40.6329C51.0041 40.7182 51.0128 40.8036 51.034 40.8863C51.0489 40.9679 51.0698 41.0482 51.0962 41.1268C51.1306 41.2027 51.1727 41.2749 51.2218 41.3419C51.26 41.4137 51.3103 41.4781 51.3706 41.5323C51.4305 41.5903 51.4931 41.6452 51.5584 41.6967C51.6327 41.7343 51.6963 41.7728 51.7706 41.8104C51.8483 41.8375 51.9278 41.8587 52.0084 41.8741C52.0898 41.8946 52.1735 41.9029 52.2573 41.8989C52.5858 41.9026 52.9017 41.7702 53.1317 41.5323C53.1923 41.4748 53.2466 41.4111 53.2939 41.3419C53.341 41.2757 53.3792 41.2033 53.4073 41.1268C53.443 41.0505 53.4682 40.9697 53.4817 40.8863C53.4959 40.8025 53.5041 40.7177 53.5061 40.6329C53.5041 40.5522 53.4959 40.4718 53.4817 40.3924C53.4682 40.309 53.443 40.2281 53.4073 40.1519Z" fill="white"/>
<path d="M23.6198 41.5323C23.7323 41.4156 23.8215 41.278 23.882 41.1268C23.9524 40.9722 23.9867 40.803 23.982 40.6329C23.9792 40.3011 23.8493 39.9835 23.6198 39.747C23.1261 39.2722 22.3522 39.2722 21.8586 39.747C21.621 39.9789 21.486 40.2985 21.4843 40.6329C21.4862 40.8025 21.5201 40.9701 21.5842 41.1268C21.6447 41.2809 21.7385 41.4195 21.8586 41.5323C22.089 41.7698 22.4046 41.9021 22.7331 41.8989C22.8173 41.9029 22.9014 41.8946 22.9831 41.8741C23.0594 41.8587 23.1344 41.8373 23.2075 41.8104C23.2831 41.7728 23.3575 41.7343 23.4332 41.6966C23.4984 41.6455 23.5606 41.5906 23.6198 41.5323Z" fill="white"/>
<path d="M51.3705 34.4678C51.1357 34.706 51.0052 35.0299 51.0082 35.3667C51.004 35.4477 51.0128 35.5289 51.0339 35.6072C51.0473 35.6891 51.0681 35.7696 51.0961 35.8477C51.1305 35.9236 51.1726 35.9958 51.2216 36.0628C51.2566 36.1365 51.3075 36.2014 51.3705 36.2526C51.4302 36.3109 51.4928 36.3661 51.5583 36.4176C51.6326 36.4552 51.6961 36.4937 51.7705 36.5313C51.8461 36.5567 51.9326 36.5819 52.0083 36.6075C52.0906 36.622 52.1737 36.6305 52.2571 36.6328C52.5875 36.6318 52.9032 36.4945 53.1316 36.2527C53.195 36.1983 53.2497 36.1343 53.2938 36.063C53.3434 35.9984 53.3819 35.9256 53.4072 35.8478C53.4447 35.7723 53.4699 35.691 53.4816 35.6073C53.4958 35.528 53.5038 35.4476 53.506 35.3668C53.504 35.2818 53.4958 35.1971 53.4816 35.1134C53.468 35.0302 53.4429 34.9492 53.4072 34.8729C53.3791 34.7964 53.3409 34.724 53.2938 34.6578C53.2464 34.589 53.1921 34.5255 53.1316 34.4681C52.8369 34.1712 52.4156 34.043 52.0083 34.1262C51.9275 34.1412 51.8481 34.1623 51.7705 34.1893C51.6961 34.2276 51.6326 34.2652 51.5583 34.3031C51.4928 34.3543 51.4302 34.4093 51.3705 34.4678Z" fill="white"/>
<path d="M23.632 44.6973C23.149 45.1965 23.149 45.9957 23.632 46.495C23.8704 46.7279 24.1877 46.8592 24.5187 46.8622C25.0256 46.8637 25.4828 46.5536 25.6748 46.0781C25.8668 45.6026 25.7555 45.0566 25.3932 44.6973C24.8971 44.2286 24.128 44.2286 23.632 44.6973Z" fill="white"/>
<path d="M50.2351 29.1631C50.1523 29.1746 50.0718 29.2001 49.9973 29.2385C49.9206 29.2639 49.8487 29.3026 49.7851 29.3529C49.7179 29.3974 49.655 29.4483 49.5973 29.505C49.5396 29.5649 49.4855 29.6284 49.4351 29.6947C49.3883 29.7654 49.3505 29.8418 49.3229 29.9222C49.292 29.9961 49.2672 30.0723 49.2485 30.1504C49.234 30.234 49.2254 30.3187 49.2229 30.4038C49.2269 30.7416 49.3612 31.0643 49.5973 31.3027C49.6548 31.3592 49.7177 31.41 49.7851 31.4542C49.8487 31.5045 49.9206 31.5432 49.9973 31.5686C50.0719 31.607 50.1523 31.6327 50.2351 31.6447C50.3133 31.6592 50.3923 31.6677 50.4718 31.67C50.5556 31.6677 50.6392 31.6592 50.7218 31.6447C50.7998 31.6306 50.8754 31.6049 50.9461 31.5686C51.026 31.5408 51.1019 31.5022 51.1718 31.4542C51.234 31.404 51.2962 31.3534 51.3584 31.3027C51.412 31.2425 51.462 31.179 51.5084 31.1129C51.556 31.0425 51.5936 30.9658 51.6207 30.8848C51.6567 30.8128 51.6822 30.7359 51.6964 30.6566C51.7289 30.4894 51.7289 30.3174 51.6964 30.1504C51.6823 30.071 51.6568 29.9941 51.6207 29.9222C51.5936 29.8416 51.5559 29.7651 51.5084 29.6947C51.4623 29.6284 51.4123 29.5651 51.3584 29.505C51.0604 29.2136 50.642 29.0863 50.2351 29.1631Z" fill="white"/>
<path d="M29.0156 49.1538C28.9778 49.0777 28.9399 49.0017 28.9033 48.9381C28.8593 48.8667 28.8045 48.8026 28.7412 48.7483C28.6299 48.6265 28.4932 48.5314 28.3412 48.4701C28.0326 48.3434 27.6874 48.3434 27.3789 48.4701C27.2271 48.5314 27.0907 48.6265 26.98 48.7483C26.9167 48.8028 26.8619 48.8667 26.8179 48.9381C26.7801 49.0017 26.7422 49.0778 26.7044 49.1538C26.68 49.2292 26.6545 49.3053 26.6301 49.3943C26.6159 49.4737 26.6078 49.5541 26.6057 49.6348C26.6065 49.9732 26.7415 50.2971 26.98 50.5337C27.0942 50.6515 27.2296 50.7459 27.3789 50.8119C27.534 50.8744 27.6998 50.9046 27.8667 50.9009C28.0291 50.9035 28.1904 50.8732 28.3412 50.8119C28.4907 50.7459 28.6266 50.6515 28.7412 50.5337C28.9793 50.2968 29.1141 49.9731 29.1156 49.6348C29.1137 49.5541 29.105 49.4737 29.0899 49.3943C29.0655 49.3053 29.0399 49.2292 29.0156 49.1538Z" fill="white"/>
<path d="M46.2503 27.2511C46.479 27.4925 46.7946 27.6297 47.1248 27.6312C47.2086 27.6288 47.2922 27.6203 47.3747 27.6058C47.4567 27.5919 47.5363 27.5662 47.6114 27.5297C47.6871 27.502 47.7585 27.4634 47.8236 27.4153C47.8893 27.3643 47.9521 27.3094 48.0114 27.2509C48.1278 27.1352 48.221 26.9977 48.2858 26.846C48.4685 26.3711 48.3613 25.8318 48.0114 25.4657C47.9552 25.4077 47.8921 25.3568 47.8236 25.3142C47.7559 25.2669 47.685 25.2246 47.6114 25.1875C47.5341 25.1605 47.4551 25.1393 47.3747 25.1238C46.9219 25.0252 46.4525 25.1909 46.1582 25.5533C45.8637 25.9158 45.7935 26.4144 45.9758 26.846C46.0363 27.0002 46.1301 27.1386 46.2503 27.2511Z" fill="white"/>
<path d="M33.2488 51.3818C32.7528 50.9133 31.9837 50.9133 31.4877 51.3818C31.3714 51.4977 31.2783 51.6351 31.2133 51.7867C31.1531 51.9441 31.1233 52.1117 31.1255 52.2806C31.1233 52.4451 31.1531 52.6086 31.2133 52.7616C31.2783 52.9133 31.3714 53.051 31.4877 53.167C31.7182 53.4096 32.0361 53.5466 32.3684 53.5466C32.7006 53.5466 33.0185 53.4095 33.249 53.167C33.3653 53.051 33.4584 52.9133 33.5234 52.7616C33.5881 52.6096 33.6221 52.4461 33.6234 52.2806C33.6207 52.111 33.5868 51.9435 33.5234 51.7867C33.4584 51.6351 33.3652 51.4975 33.2488 51.3818Z" fill="white"/>
<path d="M41.9292 24.7826C41.9914 24.8203 42.067 24.858 42.1414 24.8964C42.219 24.9234 42.2984 24.9445 42.3792 24.9595C42.4564 24.9804 42.5361 24.989 42.6159 24.9848C42.7 24.989 42.7843 24.9805 42.8659 24.9595C42.9465 24.9443 43.026 24.9233 43.1037 24.8964C43.178 24.8581 43.2402 24.8203 43.3159 24.7826C43.3838 24.7345 43.4463 24.6792 43.5025 24.6176C43.9855 24.1234 43.9855 23.3272 43.5025 22.833C43.4463 22.7714 43.3838 22.716 43.3159 22.668C43.2477 22.6255 43.1767 22.5876 43.1037 22.5542C43.0263 22.5235 42.9468 22.498 42.8659 22.4781C42.7046 22.4527 42.5405 22.4527 42.3792 22.4781C42.2983 22.4978 42.2188 22.5232 42.1414 22.5542C42.067 22.5919 41.9914 22.6303 41.9292 22.668C41.8585 22.7128 41.7951 22.7686 41.7414 22.833C41.5021 23.0665 41.367 23.3886 41.367 23.7254C41.367 24.062 41.5022 24.3842 41.7414 24.6178C41.7951 24.6822 41.8585 24.7378 41.9292 24.7826Z" fill="white"/>
<path d="M68.7201 40.5321C70.0989 40.5305 71.2164 39.3979 71.218 38V34.0221C73.6531 33.389 75.2421 31.017 74.9248 28.489C74.6075 25.9611 72.4829 24.0682 69.9691 24.0736C67.4552 24.0682 65.3307 25.9612 65.0134 28.489C64.6961 31.017 66.2851 33.3889 68.7202 34.0221V38H58.7288C58.7441 32.2888 56.5047 26.8088 52.5097 22.7816C51.7245 21.9968 50.8809 21.2744 49.9862 20.621V19.0095H67.4712C68.85 19.0079 69.9675 17.8753 69.9691 16.4774V13.7656C72.4049 13.1281 73.9931 10.754 73.676 8.22422C73.359 5.69433 71.2358 3.7981 68.7201 3.7981C66.2043 3.7981 64.0812 5.69433 63.7642 8.22408C63.4472 10.7538 65.0353 13.1279 67.4712 13.7654V16.4772H49.9862C48.6116 16.4792 47.4963 17.6054 47.4895 18.9988C44.7859 17.5446 41.8021 16.705 38.7458 16.5389V13.9454H43.7415C45.1203 13.9438 46.2378 12.811 46.2394 11.4133V9.96749C48.6753 9.32998 50.2634 6.95587 49.9464 4.42612C49.6294 1.89623 47.5061 0 44.9905 0C42.4749 0 40.3517 1.89623 40.0347 4.42597C39.7177 6.95572 41.3058 9.32983 43.7416 9.96734V11.4131H38.746C37.3672 11.4148 36.2497 12.5475 36.2481 13.9453V16.5389C34.554 16.6297 32.8769 16.926 31.2524 17.4217V7.61519C31.2508 6.21746 30.1334 5.08471 28.7545 5.08308H16.0879C15.459 2.61387 13.117 1.00397 10.6215 1.32533C8.12576 1.64668 6.25515 3.79899 6.25515 6.34921C6.25515 8.89943 8.12576 11.0516 10.6213 11.3729C13.1169 11.6943 15.4589 10.0844 16.0878 7.61519H28.7544V18.3993C23.1999 20.9341 18.9895 25.7685 17.1968 31.6698H6.27388V25.1599C8.70973 24.5224 10.2979 22.1483 9.98085 19.6185C9.66384 17.0886 7.54062 15.1924 5.02486 15.1924C2.50925 15.1924 0.38603 17.0886 0.0690171 19.6184C-0.247995 22.1481 1.34014 24.5222 3.77598 25.1597V31.6696C3.77759 33.0674 4.89504 34.2001 6.27388 34.2018H16.6099C16.3853 35.4551 16.27 36.726 16.2652 37.9999H13.7674C12.3886 38.0015 11.2711 39.1342 11.2695 40.532V58.2565H9.84327C9.21437 55.7873 6.87234 54.1774 4.37679 54.4987C1.88123 54.8201 0.0106201 56.9724 0.0106201 59.5225C0.0106201 62.0725 1.88123 64.2248 4.37679 64.5462C6.87234 64.8676 9.21437 63.2577 9.84327 60.7885H11.2695C12.6484 60.7868 13.7658 59.6541 13.7674 58.2563V40.5321H16.4255C17.2846 48.0251 21.9673 54.5079 28.7545 57.6007V69.6508H21.0836C20.4547 67.1816 18.1127 65.5717 15.6171 65.893C13.1216 66.2144 11.2509 68.3667 11.2509 70.9168C11.2509 73.4668 13.1216 75.6191 15.6171 75.9405C18.1127 76.2619 20.4547 74.652 21.0836 72.1828H28.7545C30.1334 72.1811 31.2508 71.0485 31.2524 69.6506V58.5778C32.8769 59.0735 34.5541 59.3698 36.2481 59.4606V62.0543C36.2497 63.452 37.3672 64.5848 38.746 64.5864H47.4884V66.0322C45.0526 66.6697 43.4644 69.0438 43.7815 71.5736C44.0985 74.1033 46.2217 75.9996 48.7373 75.9996C51.2529 75.9996 53.3761 74.1033 53.6931 71.5736C54.0102 69.0438 52.422 66.6697 49.9862 66.0322V64.5864C49.9846 63.1887 48.8671 62.0559 47.4883 62.0543H38.7458V59.4606C43.9366 59.1732 48.839 56.9497 52.5097 53.2181C53.9941 51.7168 55.2517 50.0016 56.2418 48.128H66.2223V60.9681C63.7865 61.6056 62.1983 63.9798 62.5153 66.5095C62.8324 69.0392 64.9556 70.9355 67.4712 70.9355C69.9868 70.9355 72.11 69.0392 72.427 66.5095C72.744 63.9798 71.1559 61.6056 68.7201 60.9681V48.128C68.7185 46.7303 67.601 45.5975 66.2222 45.5959H57.3504C57.9588 43.9646 58.3678 42.264 58.5683 40.5318H68.7201V40.5321ZM67.4712 29.1378C67.4712 27.7393 68.5895 26.6057 69.9691 26.6057C71.3487 26.6057 72.467 27.7393 72.467 29.1378C72.4654 30.5355 71.3481 31.6683 69.9691 31.6699C68.5895 31.6698 67.4712 30.5361 67.4712 29.1378ZM66.2223 8.88118C66.2223 7.4827 67.3406 6.34906 68.7202 6.34906C70.0998 6.34906 71.2181 7.4827 71.2181 8.88118C71.2181 10.2796 70.0998 11.4133 68.7202 11.4133C67.3412 11.4117 66.2238 10.2789 66.2223 8.88118ZM42.4926 5.08308C42.4926 3.6846 43.611 2.55096 44.9905 2.55096C46.3701 2.55096 47.4884 3.6846 47.4884 5.08308C47.4884 6.48155 46.3701 7.61519 44.9905 7.61519C43.6117 7.61356 42.4942 6.48081 42.4926 5.08308ZM11.2695 8.88118C9.88996 8.88118 8.77164 7.74753 8.77164 6.34906C8.77164 4.95059 9.88996 3.81694 11.2695 3.81694C12.6491 3.81694 13.7674 4.95059 13.7674 6.34906C13.7658 7.74694 12.6484 8.87955 11.2695 8.88118ZM5.02486 22.8076C3.64602 22.806 2.52857 21.6732 2.52696 20.2755C2.52696 18.877 3.64529 17.7434 5.02486 17.7434C6.40444 17.7434 7.52276 18.877 7.52276 20.2755C7.52276 21.674 6.40444 22.8076 5.02486 22.8076ZM5.02486 62.0546C3.64529 62.0546 2.52696 60.9209 2.52696 59.5225C2.52696 58.124 3.64529 56.9904 5.02486 56.9904C6.40444 56.9904 7.52276 58.124 7.52276 59.5225C7.52115 60.9204 6.4037 62.053 5.02486 62.0546ZM16.2652 73.4489C14.8856 73.4489 13.7673 72.3152 13.7673 70.9168C13.7673 69.5183 14.8856 68.3847 16.2652 68.3847C17.6448 68.3847 18.7631 69.5183 18.7631 70.9168C18.7615 72.3147 17.6442 73.4473 16.2652 73.4489ZM48.7373 68.3848C50.1161 68.3864 51.2336 69.519 51.2352 70.9169C51.2352 72.3154 50.1169 73.449 48.7373 73.449C47.3577 73.449 46.2394 72.3154 46.2394 70.9169C46.2394 69.5185 47.3577 68.3848 48.7373 68.3848ZM50.7436 51.4281C44.424 57.8338 34.5206 58.8222 27.09 53.789C19.6594 48.7556 16.7709 39.1025 20.191 30.7327C23.6111 22.363 32.3873 17.6079 41.1526 19.3754C49.9178 21.1428 56.2307 28.9406 56.2307 38C56.2443 43.0393 54.2685 47.8746 50.7436 51.4281ZM67.4712 63.3207C68.85 63.3224 69.9675 64.4551 69.9691 65.8528C69.9691 67.2513 68.8508 68.385 67.4712 68.385C66.0916 68.385 64.9733 67.2513 64.9733 65.8528C64.9733 64.4544 66.0916 63.3207 67.4712 63.3207Z" fill="white"/>
</g>
<defs>
<clipPath id="clip0">
<rect width="74.973" height="76" fill="white"/>
</clipPath>
</defs>
</svg>
