<svg width="80" height="79" viewBox="0 0 80 79" fill="none" xmlns="http://www.w3.org/2000/svg">
<path d="M63.8633 53.4894L47.7097 49.9461V47.409C50.1662 45.8224 52.0903 43.5061 53.1753 40.7729H56.7419C59.5885 40.7729 61.9032 38.4871 61.9032 35.6762V26.7568C61.9032 24.8785 60.858 23.2528 59.3226 22.3687V16.7966C59.3226 14.0211 57.6429 11.548 55.0906 10.4791L54.7831 9.87127C51.7085 3.79832 45.5266 0.0255127 38.6503 0.0255127C28.7045 0.0267571 20.6129 8.01722 20.6129 17.8387V22.3699C19.0775 23.254 18.0323 24.8797 18.0323 26.7581V35.6774C18.0323 38.4884 20.347 40.7742 23.1935 40.7742H26.7602C27.8451 43.5074 29.7693 45.8237 32.2258 47.4102V49.9474L16.0722 53.4906C11.9083 54.404 9 57.9858 9 62.1972V79H70.9355V62.1972C70.9355 57.9858 68.0272 54.404 63.8633 53.4894ZM48.8192 52.8L46.902 60.3724L41.9921 57.1415L46.8308 52.3633L48.8192 52.8ZM38.4449 66.2581H41.4918L43.5558 76.4516H36.3809L38.4449 66.2581ZM41.5409 63.7097H38.3945L37.5679 60.4489L39.9677 58.8705L42.3663 60.4502L41.5409 63.7097ZM59.3226 35.6774C59.3226 37.0829 58.1652 38.2258 56.7419 38.2258H53.9149C54.0699 37.3977 54.1613 36.5491 54.1613 35.6774V24.2097H56.7419C58.1652 24.2097 59.3226 25.3526 59.3226 26.7581V35.6774ZM23.1935 17.8387C23.1935 9.42269 30.1278 2.57514 38.6503 2.57514C44.5418 2.57514 49.8398 5.80791 52.4747 11.0129L53.2477 12.5366L53.7549 12.704C55.5404 13.2926 56.7419 14.9376 56.7419 16.7991V21.6613H54.1613V17.8387H51.5806V20.8456C50.6192 21.3315 49.5689 21.6041 48.4865 21.6432C49.0813 21.1082 49.6168 20.4991 50.0736 19.8203L47.9264 18.4067C46.6002 20.3715 44.4102 21.5617 42.0324 21.6457C42.6284 21.1094 43.1639 20.4991 43.622 19.8203L41.4748 18.4067C40.1486 20.3715 37.9585 21.5617 35.5808 21.6457C36.1768 21.1094 36.7123 20.4991 37.1704 19.8203L35.0232 18.4067C33.6478 20.4443 31.3444 21.6613 28.8645 21.6613H28.3548V17.8387H25.7742V21.6613H23.1935V17.8387ZM23.1935 38.2258C21.7703 38.2258 20.6129 37.0829 20.6129 35.6774V26.7581C20.6129 25.3526 21.7703 24.2097 23.1935 24.2097H25.7742V35.6774C25.7742 36.5491 25.8655 37.3977 26.0205 38.2258H23.1935ZM28.3548 35.6774V24.2097H28.8645C30.5146 24.2097 32.1042 23.8071 33.5161 23.073V24.2097H35.3162C36.9662 24.2097 38.5558 23.8071 39.9677 23.073V24.2097H41.7678C43.4178 24.2097 45.0074 23.8071 46.4193 23.073V24.2097H48.2194C49.3755 24.2097 50.5058 23.9894 51.5806 23.608V35.6774C51.5806 36.5541 51.471 37.4052 51.2814 38.2258H44.8902C44.356 36.7463 42.9365 35.6774 41.2568 35.6774H38.6762C36.5422 35.6774 34.8052 37.3927 34.8052 39.5C34.8052 41.6073 36.5422 43.3226 38.6762 43.3226H41.2568C42.9365 43.3226 44.356 42.2537 44.8902 40.7742H50.3546C48.4506 44.5433 44.5147 47.1452 39.9677 47.1452C33.564 47.1452 28.3548 42.0011 28.3548 35.6774ZM42.5484 39.5C42.5484 40.2018 41.97 40.7742 41.2581 40.7742H38.6774C37.9655 40.7742 37.3871 40.2018 37.3871 39.5C37.3871 38.7982 37.9655 38.2258 38.6774 38.2258H41.2581C41.97 38.2258 42.5484 38.7982 42.5484 39.5ZM39.9677 49.6935C41.7898 49.6935 43.5262 49.3408 45.129 48.7199V50.4401L39.9677 55.5369L34.8064 50.4401V48.7199C36.4093 49.3408 38.1457 49.6935 39.9677 49.6935ZM33.1047 52.3633L37.9434 57.1415L33.0335 60.3724L31.1163 52.8L33.1047 52.3633ZM11.5806 62.1972C11.5806 59.189 13.6579 56.6301 16.6323 55.978L28.5974 53.3519L31.4181 64.4986L35.2891 61.9502L36.0646 65.0156L33.7486 76.4516H21.9032V62.4355H19.3226V76.4516H11.5806V62.1972ZM68.3548 76.4516H60.6129V62.4355H58.0323V76.4516H46.1869L43.8708 65.0156L44.6464 61.9502L48.5174 64.4986L51.3381 53.3519L63.3032 55.978C66.2776 56.6301 68.3548 59.189 68.3548 62.1972V76.4516Z" fill="white"/>
<path d="M49 28.0323C49 28.7359 48.4222 29.3064 47.7096 29.3064C46.9971 29.3064 46.4193 28.7359 46.4193 28.0323C46.4193 27.3286 46.9971 26.7581 47.7096 26.7581C48.4222 26.7581 49 27.3286 49 28.0323Z" fill="white"/>
<path d="M33.5161 28.0323C33.5161 28.7359 32.9383 29.3064 32.2257 29.3064C31.5132 29.3064 30.9354 28.7359 30.9354 28.0323C30.9354 27.3286 31.5132 26.7581 32.2257 26.7581C32.9383 26.7581 33.5161 27.3286 33.5161 28.0323Z" fill="white"/>
</svg>
