<svg width="76" height="76" viewBox="0 0 76 76" fill="none" xmlns="http://www.w3.org/2000/svg">
<g clip-path="url(#clip0)">
<path d="M14 38.8265V34.9709C14 34.655 13.5523 34.3987 12.9997 34.3987C12.4477 34.3987 12 34.655 12 34.9709V38.8265C12 39.1427 12.4477 39.3987 12.9997 39.3987C13.5523 39.3987 14 39.1427 14 38.8265Z" fill="white"/>
<path d="M21 23.1127V36.2866C21 36.9006 21.4981 37.3987 22.1121 37.3987C22.7268 37.3987 23.2248 36.9006 23.2248 36.2866V23.1127C23.2248 22.4981 22.7268 22 22.1121 22C21.4981 22 21 22.4981 21 23.1127Z" fill="white"/>
<path d="M24 35.2866C24 35.9012 24.4981 36.3987 25.1121 36.3987C25.7268 36.3987 26.2248 35.9012 26.2248 35.2866V33.3429C26.2248 32.7283 25.7268 32.2302 25.1121 32.2302C24.4981 32.2302 24 32.7283 24 33.3429V35.2866Z" fill="white"/>
<path d="M15.9997 27C15.4477 27 15 27.3808 15 27.8503V35.1497C15 35.6196 15.4477 36 15.9997 36C16.5523 36 17 35.6196 17 35.1497V27.8503C17 27.3808 16.5523 27 15.9997 27Z" fill="white"/>
<path d="M31.1121 37.3987C31.7268 37.3987 32.2248 36.9006 32.2248 36.2866V32.6458C32.2248 32.0311 31.7268 31.5331 31.1121 31.5331C30.4981 31.5331 30 32.0311 30 32.6458V36.2866C30 36.9006 30.4981 37.3987 31.1121 37.3987Z" fill="white"/>
<path d="M18 33.5108V41.0034C18 41.6181 18.4981 42.1161 19.1121 42.1161C19.7262 42.1161 20.2243 41.6181 20.2243 41.0034V33.5108C20.2243 32.8968 19.7262 32.3987 19.1121 32.3987C18.4981 32.3987 18 32.8968 18 33.5108Z" fill="white"/>
<path d="M9 31.5299V37.2866C9 37.9012 9.49808 38.3987 10.1121 38.3987C10.7262 38.3987 11.2243 37.9012 11.2243 37.2866V31.5299C11.2243 30.9153 10.7262 30.4178 10.1121 30.4178C9.49808 30.4178 9 30.9153 9 31.5299Z" fill="white"/>
<path d="M27 35.4983V45.2866C27 45.9012 27.4981 46.3987 28.1121 46.3987C28.7262 46.3987 29.2243 45.9012 29.2243 45.2866V35.4983C29.2243 34.8843 28.7262 34.3862 28.1121 34.3862C27.4981 34.3862 27 34.8843 27 35.4983Z" fill="white"/>
<path d="M50.157 36.0952H44.8045C44.1905 36.0952 43.6924 36.5933 43.6924 37.2073C43.6924 37.822 44.1905 38.32 44.8045 38.32H50.157C50.7716 38.32 51.2691 37.822 51.2691 37.2073C51.2691 36.5933 50.7716 36.0952 50.157 36.0952Z" fill="white"/>
<path d="M59.4448 38.32H67.0007C67.6153 38.32 68.1134 37.822 68.1134 37.2073C68.1134 36.5933 67.6153 36.0952 67.0007 36.0952H59.4448C58.8302 36.0952 58.3327 36.5933 58.3327 37.2073C58.3327 37.822 58.8308 38.32 59.4448 38.32Z" fill="white"/>
<path d="M55.6666 36.0952H53.9352C53.3206 36.0952 52.8225 36.5933 52.8225 37.2073C52.8225 37.822 53.3206 38.32 53.9352 38.32H55.6666C56.2812 38.32 56.7787 37.822 56.7787 37.2073C56.7787 36.5933 56.2812 36.0952 55.6666 36.0952Z" fill="white"/>
<path d="M44.8045 50.441H50.157C50.7716 50.441 51.2691 49.9435 51.2691 49.3289C51.2691 48.7148 50.7716 48.2167 50.157 48.2167H44.8045C44.1905 48.2167 43.6924 48.7148 43.6924 49.3289C43.6924 49.9435 44.1905 50.441 44.8045 50.441Z" fill="white"/>
<path d="M59.4448 50.441H67.0007C67.6153 50.441 68.1134 49.9435 68.1134 49.3289C68.1134 48.7148 67.6153 48.2167 67.0007 48.2167H59.4448C58.8302 48.2167 58.3327 48.7148 58.3327 49.3289C58.3327 49.9435 58.8308 50.441 59.4448 50.441Z" fill="white"/>
<path d="M53.9352 50.441H55.6666C56.2813 50.441 56.7793 49.9435 56.7793 49.3289C56.7793 48.7148 56.2813 48.2167 55.6666 48.2167H53.9352C53.3206 48.2167 52.8231 48.7148 52.8231 49.3289C52.8231 49.9435 53.3206 50.441 53.9352 50.441Z" fill="white"/>
<path d="M50.157 60.3382H44.8045C44.1905 60.3382 43.6924 60.8363 43.6924 61.4503C43.6924 62.0644 44.1905 62.5625 44.8045 62.5625H50.157C50.7716 62.5625 51.2691 62.0644 51.2691 61.4503C51.2691 60.8363 50.7716 60.3382 50.157 60.3382Z" fill="white"/>
<path d="M67.0007 60.3382H59.4448C58.8302 60.3382 58.3327 60.8363 58.3327 61.4503C58.3327 62.0644 58.8302 62.5625 59.4448 62.5625H67.0007C67.6153 62.5625 68.1134 62.0644 68.1134 61.4503C68.1134 60.8363 67.6153 60.3382 67.0007 60.3382Z" fill="white"/>
<path d="M55.6666 60.3382H53.9352C53.3206 60.3382 52.8225 60.8363 52.8225 61.4503C52.8225 62.0644 53.3206 62.5625 53.9352 62.5625H55.6666C56.2812 62.5625 56.7787 62.0644 56.7787 61.4503C56.7787 60.8363 56.2812 60.3382 55.6666 60.3382Z" fill="white"/>
<path d="M71.1053 0.148315H4.89556C2.19642 0.148315 0 2.34415 0 5.04387V58.8625C0 61.5617 2.19642 63.7575 4.89556 63.7575H9.08139C9.69544 63.7575 10.1935 63.26 10.1935 62.6454C10.1935 62.0313 9.69544 61.5332 9.08139 61.5332H4.89556C3.42277 61.5332 2.22483 60.3353 2.22483 58.8625V54.6431H42.7478V56.56H41.8659C40.6593 56.56 39.6782 57.5411 39.6782 58.7477V61.5332H15.844C15.23 61.5332 14.7319 62.0313 14.7319 62.6454C14.7319 63.26 15.23 63.7575 15.844 63.7575H26.5385V67.7468H23.1801C20.9396 67.7468 19.1172 69.5698 19.1172 71.8097V74.2125C19.1172 75.2348 19.9487 76.0663 20.9709 76.0663H54.9447C55.9669 76.0663 56.7984 75.2348 56.7984 74.2125V71.8097C56.7984 69.5698 54.976 67.7468 52.7355 67.7468H49.3771V66.3407H69.9398C71.1459 66.3407 72.127 65.3596 72.127 64.1529V63.6294C74.295 63.1261 75.9156 61.1807 75.9156 58.8625L75.9997 5.04329C76.0003 2.34415 73.8045 0.148315 71.1053 0.148315ZM41.903 51.9949V46.6633H69.9027V51.9949H41.903ZM44.9721 44.4385V42.0983H66.8331V44.4385H44.9721ZM66.8331 54.2192V56.56H44.9721V54.2192H66.8331ZM28.7628 63.7575H39.6782V64.1535C39.6782 65.3596 40.6593 66.3407 41.8659 66.3407H47.1529V67.7468H28.7628V63.7575ZM52.7361 69.9716C53.7497 69.9716 54.5742 70.7961 54.5742 71.8097V73.842H21.3415V71.8097C21.3415 70.7961 22.1666 69.9716 23.1801 69.9716H52.7361ZM69.9027 64.1158H41.903V58.7848H69.9027V64.1158ZM73.6914 58.8625C73.6914 59.9399 73.0489 60.8682 72.1276 61.2897V58.7471C72.1276 57.5411 71.1459 56.56 69.9398 56.56H69.0579V54.6431H73.6914V58.8625ZM73.6914 52.4188H72.091C72.1136 52.293 72.1276 46.6262 72.1276 46.6262C72.1276 45.4196 71.1459 44.4385 69.9398 44.4385H69.0579V42.0983H69.9398C71.1459 42.0983 72.1276 41.1166 72.1276 39.9106V34.5048C72.1276 33.2987 71.1459 32.317 69.9398 32.317H63.6573C63.0427 32.317 62.5452 32.8151 62.5452 33.4297C62.5452 34.0438 63.0427 34.5419 63.6573 34.5419H69.9027V39.8735H41.903V34.5419H56.7364C57.351 34.5419 57.8485 34.0438 57.8485 33.4297C57.8485 32.8151 57.351 32.317 56.7364 32.317H41.8659C40.6593 32.317 39.6782 33.2987 39.6782 34.5048V39.9106C39.6782 41.1166 40.6593 42.0983 41.8659 42.0983H42.7478V44.4385H41.8659C40.6593 44.4385 39.6782 45.4202 39.6782 46.6262C39.6782 46.6262 39.6921 52.293 39.7147 52.4188H2.22483V15.2786H73.6914V52.4188ZM73.6914 13.0537H2.30659V5.04329C2.30659 3.57109 3.50453 2.37315 4.97731 2.37315H71.0207C72.4934 2.37315 73.6914 3.57109 73.6914 5.04387V13.0537Z" fill="white"/>
<path d="M8.20299 4.4176C6.40317 4.4176 4.93909 5.88169 4.93909 7.6815C4.93909 9.48131 6.40317 10.946 8.20299 10.946C10.0028 10.946 11.4675 9.48131 11.4675 7.6815C11.4675 5.88169 10.0028 4.4176 8.20299 4.4176ZM8.20299 8.72115C7.63011 8.72115 7.16334 8.25496 7.16334 7.6815C7.16334 7.10862 7.63011 6.64185 8.20299 6.64185C8.77644 6.64185 9.24263 7.10862 9.24263 7.6815C9.24263 8.25496 8.77644 8.72115 8.20299 8.72115Z" fill="white"/>
<path d="M16.5137 4.4176C14.7139 4.4176 13.2492 5.88169 13.2492 7.6815C13.2492 9.48131 14.7139 10.946 16.5137 10.946C18.3135 10.946 19.7776 9.48131 19.7776 7.6815C19.7776 5.88169 18.3129 4.4176 16.5137 4.4176ZM16.5137 8.72115C15.9402 8.72115 15.474 8.25496 15.474 7.6815C15.474 7.10862 15.9402 6.64185 16.5137 6.64185C17.0866 6.64185 17.5533 7.10862 17.5533 7.6815C17.5533 8.25496 17.0866 8.72115 16.5137 8.72115Z" fill="white"/>
<path d="M24.824 4.4176C23.0241 4.4176 21.5601 5.88169 21.5601 7.6815C21.5601 9.48131 23.0241 10.946 24.824 10.946C26.6238 10.946 28.0884 9.48131 28.0884 7.6815C28.0884 5.88169 26.6238 4.4176 24.824 4.4176ZM24.824 8.72115C24.2511 8.72115 23.7843 8.25496 23.7843 7.6815C23.7843 7.10862 24.2511 6.64185 24.824 6.64185C25.3974 6.64185 25.8636 7.10862 25.8636 7.6815C25.8636 8.25496 25.3974 8.72115 24.824 8.72115Z" fill="white"/>
</g>
<defs>
<clipPath id="clip0">
<rect width="76" height="76" fill="white"/>
</clipPath>
</defs>
</svg>
