<svg width="105" height="18" viewBox="0 0 105 18" fill="none" xmlns="http://www.w3.org/2000/svg">
<path d="M18.0484 14.4C17.3817 14.4 16.755 14.2867 16.1684 14.06C15.595 13.8333 15.095 13.5 14.6684 13.06C14.2417 12.62 13.9084 12.08 13.6684 11.44C13.4284 10.8 13.3083 10.0733 13.3083 9.26C13.3083 8.44667 13.4417 7.72 13.7084 7.08C13.975 6.44 14.335 5.9 14.7884 5.46C15.2417 5.02 15.7617 4.68667 16.3483 4.46C16.9483 4.22 17.575 4.1 18.2284 4.1C18.8684 4.1 19.415 4.20667 19.8684 4.42C20.335 4.63333 20.7483 4.89333 21.1083 5.2L19.9884 6.7C19.7217 6.47333 19.455 6.3 19.1883 6.18C18.935 6.04667 18.655 5.98 18.3483 5.98C17.5483 5.98 16.9017 6.28 16.4084 6.88C15.915 7.46667 15.6684 8.26 15.6684 9.26C15.6684 10.2467 15.9084 11.04 16.3884 11.64C16.8817 12.2267 17.515 12.52 18.2884 12.52C18.675 12.52 19.035 12.44 19.3684 12.28C19.715 12.1067 20.0284 11.9067 20.3084 11.68L21.2484 13.2C20.7817 13.6 20.2684 13.9 19.7084 14.1C19.1617 14.3 18.6084 14.4 18.0484 14.4Z" fill="#F7F7F7"/>
<path d="M28.7184 14.4C28.105 14.4 27.5184 14.2867 26.9584 14.06C26.3983 13.8333 25.8983 13.5 25.4584 13.06C25.0317 12.62 24.6917 12.08 24.4383 11.44C24.185 10.8 24.0584 10.0733 24.0584 9.26C24.0584 8.44667 24.185 7.72 24.4383 7.08C24.6917 6.44 25.0317 5.9 25.4584 5.46C25.8983 5.02 26.3983 4.68667 26.9584 4.46C27.5184 4.22 28.105 4.1 28.7184 4.1C29.3317 4.1 29.9184 4.22 30.4784 4.46C31.0517 4.68667 31.5517 5.02 31.9783 5.46C32.405 5.9 32.745 6.44 32.9983 7.08C33.265 7.72 33.3983 8.44667 33.3983 9.26C33.3983 10.0733 33.265 10.8 32.9983 11.44C32.745 12.08 32.405 12.62 31.9783 13.06C31.5517 13.5 31.0517 13.8333 30.4784 14.06C29.9184 14.2867 29.3317 14.4 28.7184 14.4ZM28.7184 12.52C29.4384 12.52 30.005 12.2267 30.4184 11.64C30.8317 11.04 31.0383 10.2467 31.0383 9.26C31.0383 8.26 30.8317 7.46667 30.4184 6.88C30.005 6.28 29.4384 5.98 28.7184 5.98C27.9984 5.98 27.4317 6.28 27.0183 6.88C26.6184 7.46667 26.4184 8.26 26.4184 9.26C26.4184 10.2467 26.6184 11.04 27.0183 11.64C27.4317 12.2267 27.9984 12.52 28.7184 12.52Z" fill="#F7F7F7"/>
<path d="M41.1149 14.4C39.8749 14.4 38.8882 13.9533 38.1549 13.06C37.4349 12.1533 37.0749 10.8867 37.0749 9.26C37.0749 8.46 37.1882 7.74 37.4149 7.1C37.6549 6.46 37.9682 5.92 38.3549 5.48C38.7416 5.04 39.1816 4.7 39.6749 4.46C40.1816 4.22 40.7016 4.1 41.2349 4.1C41.7949 4.1 42.2682 4.2 42.6549 4.4C43.0416 4.58667 43.4282 4.84667 43.8149 5.18L43.7349 3.6V0.0399995H46.0349V14.16H44.1349L43.9749 13.1H43.8949C43.5349 13.46 43.1149 13.7667 42.6349 14.02C42.1549 14.2733 41.6482 14.4 41.1149 14.4ZM41.6749 12.5C42.4082 12.5 43.0949 12.1333 43.7349 11.4V6.82C43.3882 6.51333 43.0482 6.3 42.7149 6.18C42.3949 6.06 42.0682 6 41.7349 6C41.0949 6 40.5549 6.28 40.1149 6.84C39.6749 7.4 39.4549 8.2 39.4549 9.24C39.4549 10.3067 39.6416 11.12 40.0149 11.68C40.4016 12.2267 40.9549 12.5 41.6749 12.5Z" fill="#F7F7F7"/>
<path d="M55.164 14.4C54.484 14.4 53.8506 14.2867 53.264 14.06C52.6773 13.82 52.164 13.48 51.724 13.04C51.284 12.6 50.9373 12.0667 50.684 11.44C50.444 10.8 50.324 10.0733 50.324 9.26C50.324 8.46 50.4506 7.74 50.704 7.1C50.9573 6.46 51.2906 5.92 51.704 5.48C52.1306 5.04 52.6173 4.7 53.164 4.46C53.7106 4.22 54.2706 4.1 54.844 4.1C55.5106 4.1 56.0973 4.21333 56.604 4.44C57.1106 4.66667 57.5306 4.98667 57.864 5.4C58.2106 5.81333 58.4706 6.30667 58.644 6.88C58.8173 7.45333 58.904 8.08 58.904 8.76C58.904 8.98667 58.8906 9.2 58.864 9.4C58.8506 9.6 58.8306 9.76 58.804 9.88H52.564C52.6706 10.76 52.9773 11.44 53.484 11.92C54.004 12.3867 54.664 12.62 55.464 12.62C55.8906 12.62 56.284 12.56 56.644 12.44C57.0173 12.3067 57.384 12.1267 57.744 11.9L58.524 13.34C58.0573 13.6467 57.5373 13.9 56.964 14.1C56.3906 14.3 55.7906 14.4 55.164 14.4ZM52.544 8.32H56.904C56.904 7.56 56.7373 6.96667 56.404 6.54C56.084 6.1 55.584 5.88 54.904 5.88C54.3173 5.88 53.804 6.08667 53.364 6.5C52.924 6.91333 52.6506 7.52 52.544 8.32Z" fill="#F7F7F7"/>
<path d="M63.1007 14.16V4.34H65.0007L65.1607 5.66H65.2407C65.6807 5.23333 66.154 4.86667 66.6607 4.56C67.1807 4.25333 67.7807 4.1 68.4607 4.1C69.514 4.1 70.2807 4.44 70.7607 5.12C71.2407 5.78667 71.4807 6.74667 71.4807 8V14.16H69.1807V8.3C69.1807 7.48667 69.0607 6.91333 68.8207 6.58C68.5807 6.24667 68.1874 6.08 67.6407 6.08C67.214 6.08 66.834 6.18667 66.5007 6.4C66.1807 6.6 65.814 6.9 65.4007 7.3V14.16H63.1007Z" fill="#F7F7F7"/>
<path d="M76.2921 14.16V4.34H78.5921V14.16H76.2921ZM77.4521 2.62C77.0388 2.62 76.6988 2.5 76.4321 2.26C76.1654 2.02 76.0321 1.70667 76.0321 1.32C76.0321 0.933333 76.1654 0.62 76.4321 0.38C76.6988 0.126667 77.0388 0 77.4521 0C77.8654 0 78.2054 0.126667 78.4721 0.38C78.7388 0.62 78.8721 0.933333 78.8721 1.32C78.8721 1.70667 78.7388 2.02 78.4721 2.26C78.2054 2.5 77.8654 2.62 77.4521 2.62Z" fill="#F7F7F7"/>
<path d="M82.3465 14.16L85.4665 9.04L82.5465 4.34H85.0265L86.1265 6.2C86.2731 6.46667 86.4198 6.74667 86.5665 7.04C86.7265 7.32 86.8798 7.59333 87.0265 7.86H87.1065C87.2265 7.59333 87.3531 7.32 87.4865 7.04C87.6198 6.74667 87.7465 6.46667 87.8665 6.2L88.8065 4.34H91.1865L88.2865 9.3L91.4065 14.16H88.9265L87.7265 12.22C87.5665 11.9267 87.3998 11.6333 87.2265 11.34C87.0665 11.0467 86.8998 10.76 86.7265 10.48H86.6465C86.4998 10.76 86.3531 11.0467 86.2065 11.34C86.0732 11.62 85.9331 11.9133 85.7865 12.22L84.7465 14.16H82.3465Z" fill="#F7F7F7"/>
<path d="M0 17.2V0H3.92V1.26H1.74V15.94H3.92V17.2H0Z" fill="#F2B21B"/>
<path d="M100.659 17.2V15.94H102.839V1.26H100.659V0H104.579V17.2H100.659Z" fill="#F2B21B"/>
</svg>
