<svg width="79" height="79" viewBox="0 0 79 79" fill="none" xmlns="http://www.w3.org/2000/svg">
<g clip-path="url(#clip0)">
<path d="M36.8667 42.1333C34.8416 42.1333 32.9996 42.9049 31.6 44.161V35.55C31.6 33.3722 29.8278 31.6 27.65 31.6H9.21667C7.0389 31.6 5.26667 33.3722 5.26667 35.55V46.3256C4.85323 46.1781 4.41347 46.0833 3.95 46.0833C1.77223 46.0833 0 47.8555 0 50.0333C0 51.0485 0.396317 51.9662 1.027 52.6666C0.396317 53.3671 0 54.2848 0 55.3C0 56.3151 0.396317 57.2328 1.027 57.9333C0.396317 58.6338 0 59.5515 0 60.5666C0 61.5818 0.396317 62.4995 1.027 63.2C0.396317 63.9004 0 64.8182 0 65.8333C0 68.0111 1.77223 69.7833 3.95 69.7833C4.41347 69.7833 4.85323 69.6885 5.26667 69.541V69.7833C5.26667 71.9611 7.0389 73.7333 9.21667 73.7333H11.85V79H14.4833V73.7333H27.65C29.8278 73.7333 31.6 71.9611 31.6 69.7833V53.9833V50.0333C31.6 47.5843 33.2801 45.5198 35.55 44.9325V79H38.1833V43.45C38.1833 42.7232 37.5948 42.1333 36.8667 42.1333ZM3.95 67.15C3.2232 67.15 2.63333 66.5588 2.63333 65.8333C2.63333 65.1078 3.2232 64.5166 3.95 64.5166C4.6768 64.5166 5.26667 65.1078 5.26667 65.8333C5.26667 66.5588 4.6768 67.15 3.95 67.15ZM3.95 61.8833C3.2232 61.8833 2.63333 61.2921 2.63333 60.5666C2.63333 59.8412 3.2232 59.25 3.95 59.25C4.6768 59.25 5.26667 59.8412 5.26667 60.5666C5.26667 61.2921 4.6768 61.8833 3.95 61.8833ZM3.95 56.6166C3.2232 56.6166 2.63333 56.0255 2.63333 55.3C2.63333 54.5745 3.2232 53.9833 3.95 53.9833C4.6768 53.9833 5.26667 54.5745 5.26667 55.3C5.26667 56.0255 4.6768 56.6166 3.95 56.6166ZM3.95 51.35C3.2232 51.35 2.63333 50.7588 2.63333 50.0333C2.63333 49.3078 3.2232 48.7166 3.95 48.7166C4.6768 48.7166 5.26667 49.3078 5.26667 50.0333C5.26667 50.7588 4.6768 51.35 3.95 51.35ZM28.9667 69.7833C28.9667 70.5088 28.3768 71.1 27.65 71.1H9.21667C8.48987 71.1 7.9 70.5088 7.9 69.7833V67.15H28.9667V69.7833ZM28.9667 50.0333V53.9833V64.5166H7.9V40.8166H28.9667V50.0333ZM28.9667 38.1833H7.9V35.55C7.9 34.8245 8.48987 34.2333 9.21667 34.2333H27.65C28.3768 34.2333 28.9667 34.8245 28.9667 35.55V38.1833Z" fill="white"/>
<path d="M56.6167 0C44.2742 0 34.2333 10.0409 34.2333 22.3833C34.2333 34.7258 44.2742 44.7667 56.6167 44.7667C68.9591 44.7667 79 34.7258 79 22.3833C79 10.0409 68.9591 0 56.6167 0ZM56.6167 42.1333C45.7265 42.1333 36.8667 33.2735 36.8667 22.3833C36.8667 11.4932 45.7265 2.63333 56.6167 2.63333C67.5068 2.63333 76.3667 11.4932 76.3667 22.3833C76.3667 33.2735 67.5068 42.1333 56.6167 42.1333Z" fill="white"/>
<path d="M56.6167 5.26666C47.1788 5.26666 39.5 12.9455 39.5 22.3833C39.5 31.8212 47.1788 39.5 56.6167 39.5C66.0545 39.5 73.7333 31.8212 73.7333 22.3833C73.7333 12.9455 66.0545 5.26666 56.6167 5.26666ZM56.6167 36.8667C48.6311 36.8667 42.1333 30.3689 42.1333 22.3833C42.1333 14.3977 48.6311 7.9 56.6167 7.9C64.6023 7.9 71.1 14.3977 71.1 22.3833C71.1 30.3689 64.6023 36.8667 56.6167 36.8667Z" fill="white"/>
<path d="M57.9333 21.0667H55.3C53.8477 21.0667 52.6667 19.8856 52.6667 18.4333C52.6667 16.981 53.8477 15.8 55.3 15.8H57.9333C59.3856 15.8 60.5667 16.981 60.5667 18.4333H63.2C63.2 15.5288 60.8379 13.1667 57.9333 13.1667V10.5333H55.3V13.1667C52.3954 13.1667 50.0333 15.5288 50.0333 18.4333C50.0333 21.3379 52.3954 23.7 55.3 23.7H57.9333C59.3856 23.7 60.5667 24.881 60.5667 26.3333C60.5667 27.7856 59.3856 28.9667 57.9333 28.9667H55.3C53.8477 28.9667 52.6667 27.7856 52.6667 26.3333H50.0333C50.0333 29.2379 52.3954 31.6 55.3 31.6V34.2333H57.9333V31.6C60.8379 31.6 63.2 29.2379 63.2 26.3333C63.2 23.4288 60.8379 21.0667 57.9333 21.0667Z" fill="white"/>
<path d="M44.7667 22.3833C44.7667 23.1105 45.3562 23.7 46.0833 23.7C46.8105 23.7 47.4 23.1105 47.4 22.3833C47.4 21.6561 46.8105 21.0667 46.0833 21.0667C45.3562 21.0667 44.7667 21.6561 44.7667 22.3833Z" fill="white"/>
<path d="M65.8333 22.3833C65.8333 23.1105 66.4228 23.7 67.15 23.7C67.8772 23.7 68.4667 23.1105 68.4667 22.3833C68.4667 21.6561 67.8772 21.0667 67.15 21.0667C66.4228 21.0667 65.8333 21.6561 65.8333 22.3833Z" fill="white"/>
<path d="M18.4333 17.1167C18.4333 17.8438 19.0228 18.4333 19.75 18.4333C20.4772 18.4333 21.0667 17.8438 21.0667 17.1167C21.0667 16.3895 20.4772 15.8 19.75 15.8C19.0228 15.8 18.4333 16.3895 18.4333 17.1167Z" fill="white"/>
<path d="M23.7 17.1167C23.7 17.8438 24.2895 18.4333 25.0167 18.4333C25.7439 18.4333 26.3333 17.8438 26.3333 17.1167C26.3333 16.3895 25.7439 15.8 25.0167 15.8C24.2895 15.8 23.7 16.3895 23.7 17.1167Z" fill="white"/>
<path d="M28.9667 17.1167C28.9667 17.8438 29.5562 18.4333 30.2833 18.4333C31.0105 18.4333 31.6 17.8438 31.6 17.1167C31.6 16.3895 31.0105 15.8 30.2833 15.8C29.5562 15.8 28.9667 16.3895 28.9667 17.1167Z" fill="white"/>
<path d="M13.1666 17.1167C13.1666 17.8438 13.7561 18.4333 14.4833 18.4333C15.2105 18.4333 15.8 17.8438 15.8 17.1167C15.8 16.3895 15.2105 15.8 14.4833 15.8C13.7561 15.8 13.1666 16.3895 13.1666 17.1167Z" fill="white"/>
<path d="M13.1666 22.3833C13.1666 23.1105 13.7561 23.7 14.4833 23.7C15.2105 23.7 15.8 23.1105 15.8 22.3833C15.8 21.6561 15.2105 21.0667 14.4833 21.0667C13.7561 21.0667 13.1666 21.6561 13.1666 22.3833Z" fill="white"/>
<path d="M13.1666 27.65C13.1666 28.3772 13.7561 28.9666 14.4833 28.9666C15.2105 28.9666 15.8 28.3772 15.8 27.65C15.8 26.9228 15.2105 26.3333 14.4833 26.3333C13.7561 26.3333 13.1666 26.9228 13.1666 27.65Z" fill="white"/>
<path d="M46.0833 67.15C46.0833 67.8772 46.6728 68.4667 47.4 68.4667C48.1272 68.4667 48.7167 67.8772 48.7167 67.15C48.7167 66.4228 48.1272 65.8333 47.4 65.8333C46.6728 65.8333 46.0833 66.4228 46.0833 67.15Z" fill="white"/>
<path d="M40.8167 67.15C40.8167 67.8772 41.4061 68.4667 42.1333 68.4667C42.8605 68.4667 43.45 67.8772 43.45 67.15C43.45 66.4228 42.8605 65.8333 42.1333 65.8333C41.4061 65.8333 40.8167 66.4228 40.8167 67.15Z" fill="white"/>
<path d="M51.35 67.15C51.35 67.8772 51.9395 68.4667 52.6666 68.4667C53.3938 68.4667 53.9833 67.8772 53.9833 67.15C53.9833 66.4228 53.3938 65.8333 52.6666 65.8333C51.9395 65.8333 51.35 66.4228 51.35 67.15Z" fill="white"/>
<path d="M56.6166 67.15C56.6166 67.8772 57.2061 68.4667 57.9333 68.4667C58.6605 68.4667 59.25 67.8772 59.25 67.15C59.25 66.4228 58.6605 65.8333 57.9333 65.8333C57.2061 65.8333 56.6166 66.4228 56.6166 67.15Z" fill="white"/>
<path d="M61.8834 67.15C61.8834 67.8772 62.4729 68.4667 63.2 68.4667C63.9272 68.4667 64.5167 67.8772 64.5167 67.15C64.5167 66.4228 63.9272 65.8333 63.2 65.8333C62.4729 65.8333 61.8834 66.4228 61.8834 67.15Z" fill="white"/>
<path d="M67.15 67.15C67.15 67.8772 67.7395 68.4667 68.4667 68.4667C69.1939 68.4667 69.7834 67.8772 69.7834 67.15C69.7834 66.4228 69.1939 65.8333 68.4667 65.8333C67.7395 65.8333 67.15 66.4228 67.15 67.15Z" fill="white"/>
<path d="M67.15 61.8833C67.15 62.6105 67.7395 63.2 68.4667 63.2C69.1939 63.2 69.7834 62.6105 69.7834 61.8833C69.7834 61.1561 69.1939 60.5667 68.4667 60.5667C67.7395 60.5667 67.15 61.1561 67.15 61.8833Z" fill="white"/>
<path d="M67.15 56.6167C67.15 57.3438 67.7395 57.9333 68.4667 57.9333C69.1939 57.9333 69.7834 57.3438 69.7834 56.6167C69.7834 55.8895 69.1939 55.3 68.4667 55.3C67.7395 55.3 67.15 55.8895 67.15 56.6167Z" fill="white"/>
<path d="M67.15 51.35C67.15 52.0772 67.7395 52.6667 68.4667 52.6667C69.1939 52.6667 69.7834 52.0772 69.7834 51.35C69.7834 50.6228 69.1939 50.0333 68.4667 50.0333C67.7395 50.0333 67.15 50.6228 67.15 51.35Z" fill="white"/>
<path d="M67.15 46.0833C67.15 46.8105 67.7395 47.4 68.4667 47.4C69.1939 47.4 69.7834 46.8105 69.7834 46.0833C69.7834 45.3562 69.1939 44.7667 68.4667 44.7667C67.7395 44.7667 67.15 45.3562 67.15 46.0833Z" fill="white"/>
<path d="M24.0857 46.4691L17.1166 53.4382L14.0975 50.4191L12.2357 52.2809L16.1857 56.2309C16.4425 56.4876 16.7795 56.6167 17.1166 56.6167C17.4537 56.6167 17.7907 56.4876 18.0475 56.2309L25.9475 48.3309L24.0857 46.4691Z" fill="white"/>
</g>
<defs>
<clipPath id="clip0">
<rect width="79" height="79" fill="white"/>
</clipPath>
</defs>
</svg>
