<svg width="236" height="182" viewBox="0 0 236 182" fill="none" xmlns="http://www.w3.org/2000/svg">
<g clip-path="url(#clip0)">
<path d="M235.016 87.2469C244.237 136.416 187.291 182 122.393 182C51.1686 182 0 134.769 0 87.2469C0 39.7247 39.0835 -16.4699 87.1668 4.52952C135.25 25.5289 164.562 44.7422 164.562 44.7422C164.562 44.7422 227.044 44.7423 235.016 87.2469Z" fill="url(#paint0_linear)"/>
<path d="M130.481 137.348H93.8895C91.2804 152.104 88.7576 158.372 81.6924 164.761H143.529C134.629 157.919 131.844 151.843 130.481 137.348Z" fill="#5E5E5E"/>
<path d="M179.269 20.0652H45.9519C37.9624 20.0652 31.4856 26.5182 31.4856 34.4783V120.957C31.4856 128.917 37.9624 135.37 45.9519 135.37H179.269C187.259 135.37 193.736 128.917 193.736 120.957V34.4783C193.736 26.5182 187.259 20.0652 179.269 20.0652Z" fill="white" stroke="#1D1D24" stroke-width="9"/>
<path d="M103.817 81.3913H48.2212C47.2813 81.3913 46.5193 82.1505 46.5193 83.0869V91C46.5193 91.9365 47.2813 92.6956 48.2212 92.6956H103.817C104.757 92.6956 105.519 91.9365 105.519 91V83.0869C105.519 82.1505 104.757 81.3913 103.817 81.3913Z" fill="url(#paint1_linear)"/>
<path d="M103.817 97.7826H48.2212C47.2813 97.7826 46.5193 98.5418 46.5193 99.4782V107.391C46.5193 108.328 47.2813 109.087 48.2212 109.087H103.817C104.757 109.087 105.519 108.328 105.519 107.391V99.4782C105.519 98.5418 104.757 97.7826 103.817 97.7826Z" fill="url(#paint2_linear)"/>
<path d="M167.356 164.761H57.8653C57.082 164.761 56.447 165.394 56.447 166.174V169.565C56.447 170.346 57.082 170.978 57.8653 170.978H167.356C168.139 170.978 168.774 170.346 168.774 169.565V166.174C168.774 165.394 168.139 164.761 167.356 164.761Z" fill="black" stroke="#1D1D24"/>
<path d="M178.135 81.3913H114.596C113.656 81.3913 112.894 82.1505 112.894 83.0869V91C112.894 91.9365 113.656 92.6956 114.596 92.6956H178.135C179.075 92.6956 179.837 91.9365 179.837 91V83.0869C179.837 82.1505 179.075 81.3913 178.135 81.3913Z" fill="url(#paint3_linear)"/>
<path d="M178.135 32.7826H48.2212C47.2813 32.7826 46.5193 33.5418 46.5193 34.4783V74.6087C46.5193 75.5452 47.2813 76.3043 48.2212 76.3043H178.135C179.075 76.3043 179.837 75.5452 179.837 74.6087V34.4783C179.837 33.5418 179.075 32.7826 178.135 32.7826Z" fill="#C4C4C4"/>
<path d="M178.135 32.7826H48.2212C47.2813 32.7826 46.5193 33.5418 46.5193 34.4783V74.6087C46.5193 75.5452 47.2813 76.3043 48.2212 76.3043H178.135C179.075 76.3043 179.837 75.5452 179.837 74.6087V34.4783C179.837 33.5418 179.075 32.7826 178.135 32.7826Z" fill="url(#paint4_linear)"/>
<path d="M46.5193 34.4783C46.5193 33.5418 47.2812 32.7826 48.2212 32.7826H178.135C179.075 32.7826 179.837 33.5418 179.837 34.4783V52.8721C179.837 53.6798 179.26 54.3771 178.464 54.531C152.606 59.5327 132.379 58.4305 112.043 54.2609C88.8126 48.4522 69.2819 48.1967 48.6935 53.6634C47.6013 53.9534 46.5193 53.1405 46.5193 52.0144V34.4783Z" fill="#C4C4C4"/>
<path d="M46.5193 34.4783C46.5193 33.5418 47.2812 32.7826 48.2212 32.7826H178.135C179.075 32.7826 179.837 33.5418 179.837 34.4783V52.8721C179.837 53.6798 179.26 54.3771 178.464 54.531C152.606 59.5327 132.379 58.4305 112.043 54.2609C88.8126 48.4522 69.2819 48.1967 48.6935 53.6634C47.6013 53.9534 46.5193 53.1405 46.5193 52.0144V34.4783Z" fill="url(#paint5_linear)"/>
<path d="M178.135 97.7826H114.596C113.656 97.7826 112.894 98.5418 112.894 99.4782V107.391C112.894 108.328 113.656 109.087 114.596 109.087H178.135C179.075 109.087 179.837 108.328 179.837 107.391V99.4782C179.837 98.5418 179.075 97.7826 178.135 97.7826Z" fill="url(#paint6_linear)"/>
<path d="M112.894 136.783C114.461 136.783 115.731 135.517 115.731 133.957C115.731 132.396 114.461 131.13 112.894 131.13C111.328 131.13 110.058 132.396 110.058 133.957C110.058 135.517 111.328 136.783 112.894 136.783Z" fill="#5D5D5D"/>
<path d="M195.154 69.2391H163.952C158.156 69.2391 153.457 73.9207 153.457 79.6957V160.522C153.457 166.297 158.156 170.978 163.952 170.978H195.154C200.95 170.978 205.649 166.297 205.649 160.522V79.6957C205.649 73.9207 200.95 69.2391 195.154 69.2391Z" fill="white" stroke="#1D1D24" stroke-width="9"/>
<path d="M196.856 119.826H162.817C161.877 119.826 161.115 120.585 161.115 121.522V126.043C161.115 126.98 161.877 127.739 162.817 127.739H196.856C197.796 127.739 198.558 126.98 198.558 126.043V121.522C198.558 120.585 197.796 119.826 196.856 119.826Z" fill="#C4C4C4"/>
<path d="M196.856 119.826H162.817C161.877 119.826 161.115 120.585 161.115 121.522V126.043C161.115 126.98 161.877 127.739 162.817 127.739H196.856C197.796 127.739 198.558 126.98 198.558 126.043V121.522C198.558 120.585 197.796 119.826 196.856 119.826Z" fill="url(#paint7_linear)"/>
<path d="M196.856 88.1739H162.817C161.877 88.1739 161.115 88.9331 161.115 89.8696V111.348C161.115 112.284 161.877 113.044 162.817 113.044H196.856C197.796 113.044 198.558 112.284 198.558 111.348V89.8696C198.558 88.9331 197.796 88.1739 196.856 88.1739Z" fill="#C4C4C4"/>
<path d="M196.856 88.1739H162.817C161.877 88.1739 161.115 88.9331 161.115 89.8696V111.348C161.115 112.284 161.877 113.044 162.817 113.044H196.856C197.796 113.044 198.558 112.284 198.558 111.348V89.8696C198.558 88.9331 197.796 88.1739 196.856 88.1739Z" fill="url(#paint8_linear)"/>
<path d="M196.856 134.522H162.817C161.877 134.522 161.115 135.281 161.115 136.217V140.739C161.115 141.676 161.877 142.435 162.817 142.435H196.856C197.796 142.435 198.558 141.676 198.558 140.739V136.217C198.558 135.281 197.796 134.522 196.856 134.522Z" fill="#C4C4C4"/>
<path d="M196.856 134.522H162.817C161.877 134.522 161.115 135.281 161.115 136.217V140.739C161.115 141.676 161.877 142.435 162.817 142.435H196.856C197.796 142.435 198.558 141.676 198.558 140.739V136.217C198.558 135.281 197.796 134.522 196.856 134.522Z" fill="url(#paint9_linear)"/>
<path d="M196.856 149.217H162.817C161.877 149.217 161.115 149.977 161.115 150.913V155.435C161.115 156.371 161.877 157.13 162.817 157.13H196.856C197.796 157.13 198.558 156.371 198.558 155.435V150.913C198.558 149.977 197.796 149.217 196.856 149.217Z" fill="url(#paint10_linear)"/>
<path d="M169.058 68.9565H190.048V70.087C190.048 73.2087 187.508 75.7392 184.375 75.7392H174.731C171.597 75.7392 169.058 73.2087 169.058 70.087V68.9565Z" fill="#1D1D24"/>
</g>
<defs>
<linearGradient id="paint0_linear" x1="29.5" y1="91" x2="376.235" y2="99.6338" gradientUnits="userSpaceOnUse">
<stop stop-color="#F2B21B"/>
<stop offset="1" stop-color="#E36C2C"/>
</linearGradient>
<linearGradient id="paint1_linear" x1="46.5193" y1="87.0435" x2="105.519" y2="87.0435" gradientUnits="userSpaceOnUse">
<stop stop-color="#F2B21B"/>
<stop offset="1" stop-color="#E36C2C"/>
</linearGradient>
<linearGradient id="paint2_linear" x1="49.3558" y1="103.435" x2="102.683" y2="103.435" gradientUnits="userSpaceOnUse">
<stop stop-color="#F0F0F0"/>
<stop offset="1" stop-color="#F0F0F0"/>
</linearGradient>
<linearGradient id="paint3_linear" x1="112.894" y1="87.0435" x2="179.837" y2="87.0435" gradientUnits="userSpaceOnUse">
<stop stop-color="#F2B21B"/>
<stop offset="1" stop-color="#E36C2C"/>
</linearGradient>
<linearGradient id="paint4_linear" x1="46.5193" y1="54.5435" x2="179.837" y2="54.5435" gradientUnits="userSpaceOnUse">
<stop stop-color="#F2B21B"/>
<stop offset="1" stop-color="#E36C2C"/>
</linearGradient>
<linearGradient id="paint5_linear" x1="46.5193" y1="45.3185" x2="179.837" y2="45.3185" gradientUnits="userSpaceOnUse">
<stop stop-color="#E36C2C"/>
<stop offset="1" stop-color="#F2B21B"/>
</linearGradient>
<linearGradient id="paint6_linear" x1="112.894" y1="103.435" x2="179.837" y2="103.435" gradientUnits="userSpaceOnUse">
<stop stop-color="#F0F0F0"/>
<stop offset="1" stop-color="#F0F0F0"/>
</linearGradient>
<linearGradient id="paint7_linear" x1="161.115" y1="123.783" x2="198.558" y2="123.783" gradientUnits="userSpaceOnUse">
<stop stop-color="#F2B21B"/>
<stop offset="1" stop-color="#E36C2C"/>
</linearGradient>
<linearGradient id="paint8_linear" x1="161.115" y1="100.609" x2="198.558" y2="100.609" gradientUnits="userSpaceOnUse">
<stop stop-color="#F2B21B"/>
<stop offset="1" stop-color="#E36C2C"/>
</linearGradient>
<linearGradient id="paint9_linear" x1="161.115" y1="138.478" x2="198.558" y2="138.478" gradientUnits="userSpaceOnUse">
<stop stop-color="#F2B21B"/>
<stop offset="1" stop-color="#E36C2C"/>
</linearGradient>
<linearGradient id="paint10_linear" x1="161.115" y1="153.174" x2="198.558" y2="153.174" gradientUnits="userSpaceOnUse">
<stop stop-color="#F0F0F0"/>
<stop offset="1" stop-color="#F0F0F0"/>
</linearGradient>
<clipPath id="clip0">
<rect width="236" height="182" fill="white"/>
</clipPath>
</defs>
</svg>
