<svg width="185" height="185" viewBox="0 0 185 185" fill="none" xmlns="http://www.w3.org/2000/svg">
<circle cx="92.5" cy="92.5" r="92.5" fill="#F7F7F7"/>
<rect x="36.0132" y="43.9235" width="26.2822" height="36.7019" rx="3" stroke="#1D1D24" stroke-width="2"/>
<path d="M36.2535 50.118H62.0548" stroke="#1D1D24" stroke-width="2" stroke-linecap="round"/>
<path d="M40.9673 57.809H57.3412" stroke="#1D1D24" stroke-linecap="round"/>
<path d="M40.9673 65.7478H57.3412" stroke="#1D1D24" stroke-linecap="round"/>
<path d="M40.9673 73.6866H57.3412" stroke="#1D1D24" stroke-linecap="round"/>
<rect x="82.1577" y="34" width="26.2822" height="36.7019" rx="3" stroke="#1D1D24" stroke-width="2"/>
<path d="M82.3981 40.1946H108.199" stroke="#1D1D24" stroke-width="2" stroke-linecap="round"/>
<path d="M87.1118 47.8854H103.486" stroke="#1D1D24" stroke-linecap="round"/>
<path d="M87.1118 55.8242H103.486" stroke="#1D1D24" stroke-linecap="round"/>
<path d="M87.1118 63.7629H103.486" stroke="#1D1D24" stroke-linecap="round"/>
<rect x="127.31" y="43.4272" width="26.2822" height="36.7019" rx="3" stroke="#1D1D24" stroke-width="2"/>
<path d="M127.55 49.6219H153.352" stroke="#1D1D24" stroke-width="2" stroke-linecap="round"/>
<path d="M132.264 57.3127H148.638" stroke="#1D1D24" stroke-linecap="round"/>
<path d="M132.264 65.2516H148.638" stroke="#1D1D24" stroke-linecap="round"/>
<path d="M132.264 73.1904H148.638" stroke="#1D1D24" stroke-linecap="round"/>
<path d="M62.3029 61.5303H71.2341V79.6408H83.3904V89.5643" stroke="url(#paint0_linear)" stroke-width="2" stroke-linecap="round" stroke-dasharray="5 5"/>
<path d="M127.55 61.2821H118.619V79.5529H106.463V89.5643" stroke="url(#paint1_linear)" stroke-width="2" stroke-linecap="round" stroke-dasharray="5 5"/>
<path d="M95.2988 70.9576V87.5796" stroke="url(#paint2_linear)" stroke-width="2" stroke-dasharray="5 5"/>
<circle cx="94.5544" cy="114.869" r="27.2822" fill="#F7F7F7" stroke="#1D1D24" stroke-width="2"/>
<circle cx="94.5546" cy="114.869" r="18.851" stroke="#1D1D24"/>
<path d="M95.2183 102.443V103.487C97.0233 103.769 98.4111 104.334 99.3816 105.18V108.425C98.2478 107.221 96.86 106.422 95.2183 106.027V111.74C96.8691 112.248 98.1208 112.991 98.9734 113.969C99.8351 114.938 100.266 116.057 100.266 117.326C100.266 118.596 99.8442 119.729 99.0007 120.726C98.5834 121.225 98.0936 121.629 97.5312 121.939C96.9779 122.25 96.207 122.49 95.2183 122.659V125.791H92.9325V122.659C91.3905 122.508 89.6445 121.836 87.6943 120.642V117.087C88.5651 117.905 89.4041 118.554 90.2114 119.033C91.0277 119.513 91.9348 119.856 92.9325 120.063V113.856C91.4087 113.311 90.3338 112.803 89.708 112.332C89.0912 111.862 88.6059 111.298 88.2522 110.64C87.8984 109.972 87.7215 109.299 87.7215 108.622C87.7215 107.296 88.1977 106.168 89.1501 105.237C90.1025 104.296 91.3633 103.713 92.9325 103.487V102.443H95.2183ZM92.9325 110.992V106.027C92.1978 106.13 91.5946 106.407 91.123 106.859C90.6604 107.301 90.4291 107.823 90.4291 108.425C90.4291 108.97 90.5878 109.422 90.9053 109.779C91.2227 110.136 91.7851 110.489 92.5924 110.837C92.7284 110.894 92.8418 110.945 92.9325 110.992ZM95.6401 115.041L95.2183 114.801V120.035C96.7784 119.659 97.5585 118.831 97.5585 117.552C97.5585 116.997 97.4179 116.541 97.1367 116.184C96.8646 115.817 96.3657 115.436 95.6401 115.041Z" fill="url(#paint3_linear)"/>
<path d="M95.2183 102.443V103.487C97.0233 103.769 98.4111 104.334 99.3816 105.18V108.425C98.2478 107.221 96.86 106.422 95.2183 106.027V111.74C96.8691 112.248 98.1208 112.991 98.9734 113.969C99.8351 114.938 100.266 116.057 100.266 117.326C100.266 118.596 99.8442 119.729 99.0007 120.726C98.5834 121.225 98.0936 121.629 97.5312 121.939C96.9779 122.25 96.207 122.49 95.2183 122.659V125.791H92.9325V122.659C91.3905 122.508 89.6445 121.836 87.6943 120.642V117.087C88.5651 117.905 89.4041 118.554 90.2114 119.033C91.0277 119.513 91.9348 119.856 92.9325 120.063V113.856C91.4087 113.311 90.3338 112.803 89.708 112.332C89.0912 111.862 88.6059 111.298 88.2522 110.64C87.8984 109.972 87.7215 109.299 87.7215 108.622C87.7215 107.296 88.1977 106.168 89.1501 105.237C90.1025 104.296 91.3633 103.713 92.9325 103.487V102.443H95.2183ZM92.9325 110.992V106.027C92.1978 106.13 91.5946 106.407 91.123 106.859C90.6604 107.301 90.4291 107.823 90.4291 108.425C90.4291 108.97 90.5878 109.422 90.9053 109.779C91.2227 110.136 91.7851 110.489 92.5924 110.837C92.7284 110.894 92.8418 110.945 92.9325 110.992ZM95.6401 115.041L95.2183 114.801V120.035C96.7784 119.659 97.5585 118.831 97.5585 117.552C97.5585 116.997 97.4179 116.541 97.1367 116.184C96.8646 115.817 96.3657 115.436 95.6401 115.041Z" stroke="url(#paint4_linear)"/>
<rect x="51.8948" y="116.211" width="83.0132" height="57.7895" rx="11" fill="#F7F7F7" stroke="#1D1D24" stroke-width="2"/>
<path d="M52.7632 125.487H134.974" stroke="#1D1D24"/>
<path d="M52.7632 162.855H60.2369" stroke="#1D1D24" stroke-linecap="round"/>
<path d="M69.579 162.855H134.974" stroke="#1D1D24" stroke-linecap="round"/>
<path d="M110.436 144.648C110.436 139.084 114.947 134.573 120.511 134.573H135.093C136.902 134.573 138.369 136.04 138.369 137.849V151.447C138.369 153.256 136.902 154.723 135.093 154.723H120.511C114.947 154.723 110.436 150.212 110.436 144.648Z" fill="#F7F7F7" stroke="#1D1D24" stroke-width="2"/>
<circle cx="122.008" cy="144.349" r="4.2892" stroke="#1D1D24"/>
<path d="M133.535 99.5551H163.43" stroke="#1D1D24" stroke-width="2" stroke-linecap="round"/>
<path d="M21 92.8949H53.2305" stroke="#1D1D24" stroke-width="2" stroke-linecap="round"/>
<circle cx="130.891" cy="93.588" r="1" fill="url(#paint5_linear)" stroke="url(#paint6_linear)" stroke-width="1.46564"/>
<circle cx="57.6003" cy="98.5002" r="1" fill="url(#paint7_linear)" stroke="url(#paint8_linear)" stroke-width="1.46564"/>
<defs>
<linearGradient id="paint0_linear" x1="62.3029" y1="75.5473" x2="85.6795" y2="75.5473" gradientUnits="userSpaceOnUse">
<stop stop-color="#F2B21B"/>
<stop offset="1" stop-color="#E4732B"/>
</linearGradient>
<linearGradient id="paint1_linear" x1="127.55" y1="75.4232" x2="104.174" y2="75.4232" gradientUnits="userSpaceOnUse">
<stop stop-color="#F2B21B"/>
<stop offset="1" stop-color="#E4732B"/>
</linearGradient>
<linearGradient id="paint2_linear" x1="95.2988" y1="79.2686" x2="96.4074" y2="79.2686" gradientUnits="userSpaceOnUse">
<stop stop-color="#F2B21B"/>
<stop offset="1" stop-color="#E4732B"/>
</linearGradient>
<linearGradient id="paint3_linear" x1="87.6943" y1="114.117" x2="101.631" y2="114.117" gradientUnits="userSpaceOnUse">
<stop stop-color="#F2B21B"/>
<stop offset="1" stop-color="#E4732B"/>
</linearGradient>
<linearGradient id="paint4_linear" x1="87.6943" y1="114.117" x2="101.631" y2="114.117" gradientUnits="userSpaceOnUse">
<stop stop-color="#F2B21B"/>
<stop offset="1" stop-color="#E4732B"/>
</linearGradient>
<linearGradient id="paint5_linear" x1="129.158" y1="93.588" x2="133" y2="93.588" gradientUnits="userSpaceOnUse">
<stop stop-color="#F2B21B"/>
<stop offset="1" stop-color="#E4732B"/>
</linearGradient>
<linearGradient id="paint6_linear" x1="129.158" y1="93.588" x2="133" y2="93.588" gradientUnits="userSpaceOnUse">
<stop stop-color="#F2B21B"/>
<stop offset="1" stop-color="#E4732B"/>
</linearGradient>
<linearGradient id="paint7_linear" x1="55.8674" y1="98.5002" x2="59.7093" y2="98.5002" gradientUnits="userSpaceOnUse">
<stop stop-color="#F2B21B"/>
<stop offset="1" stop-color="#E4732B"/>
</linearGradient>
<linearGradient id="paint8_linear" x1="55.8674" y1="98.5002" x2="59.7093" y2="98.5002" gradientUnits="userSpaceOnUse">
<stop stop-color="#F2B21B"/>
<stop offset="1" stop-color="#E4732B"/>
</linearGradient>
</defs>
</svg>
