<svg width="193" height="185" viewBox="0 0 193 185" fill="none" xmlns="http://www.w3.org/2000/svg">
<circle cx="92.5" cy="92.5" r="92.5" fill="#F7F7F7"/>
<path d="M136 43H151" stroke="#1D1D24" stroke-width="2" stroke-linecap="round"/>
<path d="M141 48L151 48" stroke="#1D1D24" stroke-width="2" stroke-linecap="round"/>
<path d="M144 54L151 54" stroke="#1D1D24" stroke-width="2" stroke-linecap="round"/>
<path d="M87.185 122.629L79.0237 147.855" stroke="black" stroke-width="2"/>
<path d="M110.556 122.629L118.718 147.855" stroke="black" stroke-width="2"/>
<path d="M81.9915 138.209H115.75" stroke="black" stroke-width="2"/>
<path d="M54 80.0579C86.0935 83.9311 99.0203 76.2987 115 49" stroke="black" stroke-width="2" stroke-linecap="round"/>
<path d="M107 50L116.167 47L117 56" stroke="black" stroke-width="2" stroke-linecap="round"/>
<rect x="73.5881" y="59.322" width="8.64522" height="47.2261" rx="4.32261" stroke="black"/>
<rect x="60.2333" y="81.5802" width="8.64522" height="24.9679" rx="4.32261" stroke="black"/>
<rect x="86.9431" y="67.4833" width="8.64522" height="39.0648" rx="4.32261" stroke="black"/>
<rect x="100.298" y="81.5802" width="8.64522" height="24.9679" rx="4.32261" stroke="black"/>
<rect x="113.653" y="65.9994" width="8.64522" height="40.5487" rx="4.32261" stroke="black"/>
<rect x="127.008" y="50.4187" width="8.64522" height="56.1294" rx="4.32261" stroke="black"/>
<path d="M46 43V113C46 114.105 46.8954 115 48 115H151" stroke="black" stroke-width="2" stroke-linecap="round"/>
<rect x="37" y="34" width="125" height="89" rx="8" stroke="black" stroke-width="2"/>
<path d="M135.955 157C135.45 151.394 130.738 147 125 147H73C67.262 147 62.5501 151.394 62.0448 157H135.955Z" stroke="#1D1D24" stroke-width="2"/>
<path d="M126 142H158" stroke="#1D1D24" stroke-width="2" stroke-linecap="round"/>
<path d="M31.5396 134.871H66.0398" stroke="#1D1D24" stroke-width="2" stroke-linecap="round"/>
<circle cx="123.169" cy="135.613" r="1" fill="#1D1D24" stroke="#1D1D24" stroke-width="1.7097"/>
<circle cx="70.7173" cy="140.871" r="1" fill="#1D1D24" stroke="#1D1D24" stroke-width="1.7097"/>
<path d="M162.387 115.152L168.494 108.798L183.324 123.052C185.078 124.739 185.134 127.528 183.447 129.283C181.761 131.037 178.971 131.092 177.216 129.406L162.387 115.152Z" fill="#F7F7F7" stroke="black" stroke-width="2"/>
<path d="M176.757 116.854L171.304 123.168" stroke="black" stroke-width="2"/>
<circle cx="154.086" cy="100.497" r="21.3842" fill="#F7F7F7" stroke="black" stroke-width="2"/>
<circle cx="154.086" cy="100.497" r="16.7926" fill="#F7F7F7" stroke="black" stroke-width="2"/>
<path d="M136.58 99.3486H148.346L159.538 108.532L170.443 96.1919L183.644 82.417H192.541" stroke="url(#paint0_linear)"/>
<circle cx="148.633" cy="99.6357" r="3.2307" fill="#F7F7F7" stroke="url(#paint1_linear)"/>
<circle cx="159.538" cy="108.819" r="3.2307" fill="#F7F7F7" stroke="url(#paint2_linear)"/>
<circle cx="170.443" cy="96.1919" r="3.2307" fill="#F7F7F7" stroke="url(#paint3_linear)"/>
<circle cx="183.644" cy="82.991" r="3.2307" fill="#F7F7F7" stroke="url(#paint4_linear)"/>
<path d="M96 33.9193V17H17V94H36.489" stroke="url(#paint5_linear)" stroke-width="2" stroke-dasharray="6 6"/>
<defs>
<linearGradient id="paint0_linear" x1="136.58" y1="95.4744" x2="198.615" y2="95.4744" gradientUnits="userSpaceOnUse">
<stop stop-color="#F2B21B"/>
<stop offset="1" stop-color="#E4732B"/>
</linearGradient>
<linearGradient id="paint1_linear" x1="144.902" y1="99.6357" x2="153.174" y2="99.6357" gradientUnits="userSpaceOnUse">
<stop stop-color="#F2B21B"/>
<stop offset="1" stop-color="#E4732B"/>
</linearGradient>
<linearGradient id="paint2_linear" x1="155.807" y1="108.819" x2="164.079" y2="108.819" gradientUnits="userSpaceOnUse">
<stop stop-color="#F2B21B"/>
<stop offset="1" stop-color="#E4732B"/>
</linearGradient>
<linearGradient id="paint3_linear" x1="166.713" y1="96.1919" x2="174.984" y2="96.1919" gradientUnits="userSpaceOnUse">
<stop stop-color="#F2B21B"/>
<stop offset="1" stop-color="#E4732B"/>
</linearGradient>
<linearGradient id="paint4_linear" x1="179.914" y1="82.991" x2="188.185" y2="82.991" gradientUnits="userSpaceOnUse">
<stop stop-color="#F2B21B"/>
<stop offset="1" stop-color="#E4732B"/>
</linearGradient>
<linearGradient id="paint5_linear" x1="17" y1="55.5" x2="104.576" y2="55.5" gradientUnits="userSpaceOnUse">
<stop stop-color="#F2B21B"/>
<stop offset="1" stop-color="#E4732B"/>
</linearGradient>
</defs>
</svg>
