<svg width="185" height="185" viewBox="0 0 185 185" fill="none" xmlns="http://www.w3.org/2000/svg">
<circle cx="92.5" cy="92.5" r="92.5" fill="#F7F7F7"/>
<path d="M60.2185 163.365H90.757" stroke="#1D1D24" stroke-width="2" stroke-linecap="round"/>
<path d="M98.3915 169.612H126.154" stroke="#1D1D24" stroke-width="2" stroke-linecap="round"/>
<path d="M16.1049 75.8916C16.1049 71.4733 19.6866 67.8916 24.1049 67.8916H118.542C122.96 67.8916 126.542 71.4733 126.542 75.8916V142.238H16.1049V75.8916Z" stroke="#1D1D24" stroke-width="2"/>
<path d="M137.609 142.156C137.098 148.802 131.543 154.037 124.766 154.037H17.8811C11.1036 154.037 5.54859 148.802 5.03824 142.156H137.609Z" stroke="#1D1D24" stroke-width="2"/>
<rect x="24.4335" y="76.2203" width="94.4737" height="59.0769" rx="1" stroke="#1D1D24" stroke-width="2"/>
<rect x="136.25" y="24.9255" width="41.75" height="68.7447" rx="9" stroke="#1D1D24" stroke-width="2"/>
<circle cx="156.66" cy="40.6809" r="4.15426" stroke="#1D1D24"/>
<path d="M152.005 27.6489H161.314" stroke="#1D1D24" stroke-linecap="round"/>
<rect x="141.835" y="30.5106" width="30.5798" height="55.7128" rx="1" stroke="#1D1D24" stroke-width="2"/>
<rect x="145.989" y="51.4202" width="22.2713" height="15.7553" stroke="#1D1D24"/>
<circle cx="37.6129" cy="87.6274" r="5.05818" stroke="#1D1D24"/>
<rect x="46.9407" y="84.5308" width="62.4287" height="5.53904" rx="2.76952" stroke="#1D1D24"/>
<rect x="30.593" y="123.111" width="81.3919" height="5.53904" rx="2.76952" stroke="#1D1D24"/>
<rect x="33.3564" y="97.0319" width="47.4043" height="19.4787" stroke="#1D1D24"/>
<rect x="84.5532" y="97.0319" width="24.133" height="19.4787" stroke="#1D1D24"/>
<rect x="145.989" y="70.9681" width="22.2713" height="8.30851" stroke="#1D1D24"/>
<path d="M73.4056 67.5858V38.4354H135.177" stroke="url(#paint0_linear)" stroke-width="2" stroke-dasharray="6 6"/>
<path d="M126.872 124.457H157.59V94.6702" stroke="url(#paint1_linear)" stroke-width="2" stroke-dasharray="6 6"/>
<circle cx="90.4099" cy="169.265" r="1" fill="#1D1D24" stroke="#1D1D24" stroke-width="1.47028"/>
<circle cx="96.6564" cy="163.712" r="1" fill="#1D1D24" stroke="#1D1D24" stroke-width="1.47028"/>
<defs>
<linearGradient id="paint0_linear" x1="73.4056" y1="53.0106" x2="141.882" y2="53.0106" gradientUnits="userSpaceOnUse">
<stop stop-color="#F2B21B"/>
<stop offset="1" stop-color="#E4732B"/>
</linearGradient>
<linearGradient id="paint1_linear" x1="126.872" y1="109.564" x2="160.925" y2="109.564" gradientUnits="userSpaceOnUse">
<stop stop-color="#F2B21B"/>
<stop offset="1" stop-color="#E4732B"/>
</linearGradient>
</defs>
</svg>
