<svg width="253" height="178" viewBox="0 0 253 178" fill="none" xmlns="http://www.w3.org/2000/svg">
<path d="M253 82.4527C253 123.244 199.86 156.312 134.309 156.312C106.953 156.312 61.6885 187.498 35.9198 175.077C2.79689 159.112 0 125.227 0 101.459C0 60.6672 68.7572 8.59311 134.309 8.59311C199.86 8.59311 253 41.661 253 82.4527Z" fill="url(#paint0_linear)"/>
<path d="M148.796 9H134.308C127.23 9 121.492 14.9018 121.492 22.1821V24.4746C121.492 31.7549 127.23 37.6567 134.308 37.6567H148.796C155.874 37.6567 161.612 31.7549 161.612 24.4746V22.1821C161.612 14.9018 155.874 9 148.796 9Z" stroke="#1D1D24" stroke-width="14"/>
<path d="M94.3888 16.6418H93.1947C90.8867 16.6418 89.0156 18.4108 89.0156 20.593V25.1086C89.0156 27.2908 90.8867 29.0598 93.1947 29.0598H94.3888C96.6968 29.0598 98.5679 27.2908 98.5679 25.1086V20.593C98.5679 18.4108 96.6968 16.6418 94.3888 16.6418Z" fill="#1D1D24"/>
<path d="M190.328 16.6418H189.254C187.176 16.6418 185.492 18.4108 185.492 20.593V25.1086C185.492 27.2908 187.176 29.0598 189.254 29.0598H190.328C192.406 29.0598 194.089 27.2908 194.089 25.1086V20.593C194.089 18.4108 192.406 16.6418 190.328 16.6418Z" fill="#1D1D24"/>
<path d="M200.732 25.2387H82.3723C74.4347 25.2387 68 31.6803 68 39.6265V119.747C68 127.693 74.4347 134.134 82.3723 134.134H200.732C208.67 134.134 215.105 127.693 215.105 119.747V39.6265C215.105 31.6803 208.67 25.2387 200.732 25.2387Z" fill="white" stroke="#1D1D24" stroke-width="9"/>
<path d="M96.6562 53.1993C96.6562 51.4735 95.3731 50.0745 93.7905 50.0745C92.2078 50.0745 90.9248 51.4735 90.9248 53.1993V133.875C90.9248 135.601 92.2078 137 93.7905 137C95.3731 137 96.6562 135.601 96.6562 133.875V53.1993Z" fill="#1D1D24"/>
<path d="M193.134 53.1993C193.134 51.4735 191.851 50.0745 190.269 50.0745C188.686 50.0745 187.403 51.4735 187.403 53.1993V133.875C187.403 135.601 188.686 137 190.269 137C191.851 137 193.134 135.601 193.134 133.875V53.1993Z" fill="#1D1D24"/>
<path d="M127.394 47.3929L108.792 52.2953C106.678 52.8523 105.415 55.0206 105.971 57.1384L109.478 70.4987C110.034 72.6164 112.198 73.8817 114.312 73.3247L132.914 68.4224C135.028 67.8653 136.291 65.697 135.735 63.5792L132.228 50.219C131.672 48.1012 129.508 46.8359 127.394 47.3929Z" fill="url(#paint1_linear)"/>
<path d="M176.21 86.7874L145.247 74.4698C143.216 73.6617 140.915 74.6565 140.109 76.6918L132.43 96.0691C131.624 98.1043 132.617 100.409 134.648 101.217L165.61 113.535C167.642 114.343 169.942 113.348 170.749 111.313L178.427 91.9357C179.234 89.9005 178.241 87.5955 176.21 86.7874Z" fill="url(#paint2_linear)"/>
<defs>
<linearGradient id="paint0_linear" x1="31.625" y1="93.2966" x2="403.262" y2="103.955" gradientUnits="userSpaceOnUse">
<stop stop-color="#F2B21B"/>
<stop offset="1" stop-color="#E36C2C"/>
</linearGradient>
<linearGradient id="paint1_linear" x1="111.007" y1="62.9534" x2="149.837" y2="53.7496" gradientUnits="userSpaceOnUse">
<stop stop-color="#F2B21B"/>
<stop offset="1" stop-color="#E36C2C"/>
</linearGradient>
<linearGradient id="paint2_linear" x1="141.059" y1="88.2861" x2="196.768" y2="112.155" gradientUnits="userSpaceOnUse">
<stop stop-color="#F2B21B"/>
<stop offset="1" stop-color="#E36C2C"/>
</linearGradient>
</defs>
</svg>
