<svg width="176" height="176" viewBox="0 0 176 176" fill="none" xmlns="http://www.w3.org/2000/svg">
<g filter="url(#filter0_d)">
<g clip-path="url(#clip0)">
<path d="M64 74.8265V70.9709C64 70.655 63.5523 70.3987 62.9997 70.3987C62.4477 70.3987 62 70.655 62 70.9709V74.8265C62 75.1427 62.4477 75.3987 62.9997 75.3987C63.5523 75.3987 64 75.1427 64 74.8265Z" fill="#F7F7F7"/>
<path d="M71 59.1127V72.2866C71 72.9006 71.4981 73.3987 72.1121 73.3987C72.7268 73.3987 73.2248 72.9006 73.2248 72.2866V59.1127C73.2248 58.4981 72.7268 58 72.1121 58C71.4981 58 71 58.4981 71 59.1127Z" fill="#F7F7F7"/>
<path d="M74 71.2866C74 71.9012 74.4981 72.3987 75.1121 72.3987C75.7268 72.3987 76.2248 71.9012 76.2248 71.2866V69.3429C76.2248 68.7283 75.7268 68.2302 75.1121 68.2302C74.4981 68.2302 74 68.7283 74 69.3429V71.2866Z" fill="#F7F7F7"/>
<path d="M65.9997 63C65.4477 63 65 63.3808 65 63.8503V71.1497C65 71.6196 65.4477 72 65.9997 72C66.5523 72 67 71.6196 67 71.1497V63.8503C67 63.3808 66.5523 63 65.9997 63Z" fill="#F7F7F7"/>
<path d="M81.1121 73.3987C81.7268 73.3987 82.2248 72.9006 82.2248 72.2866V68.6458C82.2248 68.0311 81.7268 67.5331 81.1121 67.5331C80.4981 67.5331 80 68.0311 80 68.6458V72.2866C80 72.9006 80.4981 73.3987 81.1121 73.3987Z" fill="#F7F7F7"/>
<path d="M68 69.5108V77.0034C68 77.6181 68.4981 78.1161 69.1121 78.1161C69.7262 78.1161 70.2243 77.6181 70.2243 77.0034V69.5108C70.2243 68.8968 69.7262 68.3987 69.1121 68.3987C68.4981 68.3987 68 68.8968 68 69.5108Z" fill="#F7F7F7"/>
<path d="M59 67.5299V73.2866C59 73.9012 59.4981 74.3987 60.1121 74.3987C60.7262 74.3987 61.2243 73.9012 61.2243 73.2866V67.5299C61.2243 66.9153 60.7262 66.4178 60.1121 66.4178C59.4981 66.4178 59 66.9153 59 67.5299Z" fill="#F7F7F7"/>
<path d="M77 71.4983V81.2866C77 81.9012 77.4981 82.3987 78.1121 82.3987C78.7262 82.3987 79.2243 81.9012 79.2243 81.2866V71.4983C79.2243 70.8843 78.7262 70.3862 78.1121 70.3862C77.4981 70.3862 77 70.8843 77 71.4983Z" fill="#F7F7F7"/>
<path d="M100.157 72.0952H94.8045C94.1905 72.0952 93.6924 72.5933 93.6924 73.2073C93.6924 73.822 94.1905 74.32 94.8045 74.32H100.157C100.772 74.32 101.269 73.822 101.269 73.2073C101.269 72.5933 100.772 72.0952 100.157 72.0952Z" fill="#F7F7F7"/>
<path d="M109.445 74.32H117.001C117.615 74.32 118.113 73.822 118.113 73.2073C118.113 72.5933 117.615 72.0952 117.001 72.0952H109.445C108.83 72.0952 108.333 72.5933 108.333 73.2073C108.333 73.822 108.831 74.32 109.445 74.32Z" fill="#F7F7F7"/>
<path d="M105.667 72.0952H103.935C103.321 72.0952 102.823 72.5933 102.823 73.2073C102.823 73.822 103.321 74.32 103.935 74.32H105.667C106.281 74.32 106.779 73.822 106.779 73.2073C106.779 72.5933 106.281 72.0952 105.667 72.0952Z" fill="#F7F7F7"/>
<path d="M94.8045 86.441H100.157C100.772 86.441 101.269 85.9435 101.269 85.3289C101.269 84.7148 100.772 84.2167 100.157 84.2167H94.8045C94.1905 84.2167 93.6924 84.7148 93.6924 85.3289C93.6924 85.9435 94.1905 86.441 94.8045 86.441Z" fill="#F7F7F7"/>
<path d="M109.445 86.441H117.001C117.615 86.441 118.113 85.9435 118.113 85.3289C118.113 84.7148 117.615 84.2167 117.001 84.2167H109.445C108.83 84.2167 108.333 84.7148 108.333 85.3289C108.333 85.9435 108.831 86.441 109.445 86.441Z" fill="#F7F7F7"/>
<path d="M103.935 86.441H105.667C106.281 86.441 106.779 85.9435 106.779 85.3289C106.779 84.7148 106.281 84.2167 105.667 84.2167H103.935C103.321 84.2167 102.823 84.7148 102.823 85.3289C102.823 85.9435 103.321 86.441 103.935 86.441Z" fill="#F7F7F7"/>
<path d="M100.157 96.3382H94.8045C94.1905 96.3382 93.6924 96.8363 93.6924 97.4503C93.6924 98.0644 94.1905 98.5625 94.8045 98.5625H100.157C100.772 98.5625 101.269 98.0644 101.269 97.4503C101.269 96.8363 100.772 96.3382 100.157 96.3382Z" fill="#F7F7F7"/>
<path d="M117.001 96.3382H109.445C108.83 96.3382 108.333 96.8363 108.333 97.4503C108.333 98.0644 108.83 98.5625 109.445 98.5625H117.001C117.615 98.5625 118.113 98.0644 118.113 97.4503C118.113 96.8363 117.615 96.3382 117.001 96.3382Z" fill="#F7F7F7"/>
<path d="M105.667 96.3382H103.935C103.321 96.3382 102.823 96.8363 102.823 97.4503C102.823 98.0644 103.321 98.5625 103.935 98.5625H105.667C106.281 98.5625 106.779 98.0644 106.779 97.4503C106.779 96.8363 106.281 96.3382 105.667 96.3382Z" fill="#F7F7F7"/>
<path d="M121.105 36.1483H54.8956C52.1964 36.1483 50 38.3442 50 41.0439V94.8625C50 97.5617 52.1964 99.7575 54.8956 99.7575H59.0814C59.6954 99.7575 60.1935 99.26 60.1935 98.6454C60.1935 98.0313 59.6954 97.5332 59.0814 97.5332H54.8956C53.4228 97.5332 52.2248 96.3353 52.2248 94.8625V90.6431H92.7478V92.56H91.8659C90.6593 92.56 89.6782 93.5411 89.6782 94.7477V97.5332H65.844C65.23 97.5332 64.7319 98.0313 64.7319 98.6454C64.7319 99.26 65.23 99.7575 65.844 99.7575H76.5385V103.747H73.1801C70.9396 103.747 69.1172 105.57 69.1172 107.81V110.213C69.1172 111.235 69.9487 112.066 70.9709 112.066H104.945C105.967 112.066 106.798 111.235 106.798 110.213V107.81C106.798 105.57 104.976 103.747 102.736 103.747H99.3771V102.341H119.94C121.146 102.341 122.127 101.36 122.127 100.153V99.6294C124.295 99.1261 125.916 97.1807 125.916 94.8625L126 41.0433C126 38.3442 123.804 36.1483 121.105 36.1483ZM91.903 87.9949V82.6633H119.903V87.9949H91.903ZM94.9721 80.4385V78.0983H116.833V80.4385H94.9721ZM116.833 90.2192V92.56H94.9721V90.2192H116.833ZM78.7628 99.7575H89.6782V100.154C89.6782 101.36 90.6593 102.341 91.8659 102.341H97.1529V103.747H78.7628V99.7575ZM102.736 105.972C103.75 105.972 104.574 106.796 104.574 107.81V109.842H71.3415V107.81C71.3415 106.796 72.1666 105.972 73.1801 105.972H102.736ZM119.903 100.116H91.903V94.7848H119.903V100.116ZM123.691 94.8625C123.691 95.9399 123.049 96.8682 122.128 97.2897V94.7471C122.128 93.5411 121.146 92.56 119.94 92.56H119.058V90.6431H123.691V94.8625ZM123.691 88.4188H122.091C122.114 88.293 122.128 82.6262 122.128 82.6262C122.128 81.4196 121.146 80.4385 119.94 80.4385H119.058V78.0983H119.94C121.146 78.0983 122.128 77.1166 122.128 75.9106V70.5048C122.128 69.2987 121.146 68.317 119.94 68.317H113.657C113.043 68.317 112.545 68.8151 112.545 69.4297C112.545 70.0438 113.043 70.5419 113.657 70.5419H119.903V75.8735H91.903V70.5419H106.736C107.351 70.5419 107.849 70.0438 107.849 69.4297C107.849 68.8151 107.351 68.317 106.736 68.317H91.8659C90.6593 68.317 89.6782 69.2987 89.6782 70.5048V75.9106C89.6782 77.1166 90.6593 78.0983 91.8659 78.0983H92.7478V80.4385H91.8659C90.6593 80.4385 89.6782 81.4202 89.6782 82.6262C89.6782 82.6262 89.6921 88.293 89.7147 88.4188H52.2248V51.2786H123.691V88.4188ZM123.691 49.0537H52.3066V41.0433C52.3066 39.5711 53.5045 38.3731 54.9773 38.3731H121.021C122.493 38.3731 123.691 39.5711 123.691 41.0439V49.0537Z" fill="#F7F7F7"/>
<path d="M58.2031 40.4176C56.4033 40.4176 54.9392 41.8817 54.9392 43.6815C54.9392 45.4813 56.4033 46.946 58.2031 46.946C60.0029 46.946 61.4676 45.4813 61.4676 43.6815C61.4676 41.8817 60.0029 40.4176 58.2031 40.4176ZM58.2031 44.7211C57.6302 44.7211 57.1635 44.255 57.1635 43.6815C57.1635 43.1086 57.6302 42.6419 58.2031 42.6419C58.7766 42.6419 59.2428 43.1086 59.2428 43.6815C59.2428 44.255 58.7766 44.7211 58.2031 44.7211Z" fill="#F7F7F7"/>
<path d="M66.5137 40.4176C64.7139 40.4176 63.2493 41.8817 63.2493 43.6815C63.2493 45.4813 64.7139 46.946 66.5137 46.946C68.3136 46.946 69.7776 45.4813 69.7776 43.6815C69.7776 41.8817 68.313 40.4176 66.5137 40.4176ZM66.5137 44.7211C65.9403 44.7211 65.4741 44.255 65.4741 43.6815C65.4741 43.1086 65.9403 42.6419 66.5137 42.6419C67.0866 42.6419 67.5534 43.1086 67.5534 43.6815C67.5534 44.255 67.0866 44.7211 66.5137 44.7211Z" fill="#F7F7F7"/>
<path d="M74.824 40.4176C73.0241 40.4176 71.5601 41.8817 71.5601 43.6815C71.5601 45.4813 73.0241 46.946 74.824 46.946C76.6238 46.946 78.0884 45.4813 78.0884 43.6815C78.0884 41.8817 76.6238 40.4176 74.824 40.4176ZM74.824 44.7211C74.2511 44.7211 73.7843 44.255 73.7843 43.6815C73.7843 43.1086 74.2511 42.6419 74.824 42.6419C75.3974 42.6419 75.8636 43.1086 75.8636 43.6815C75.8636 44.255 75.3974 44.7211 74.824 44.7211Z" fill="#F7F7F7"/>
</g>
</g>
<defs>
<filter id="filter0_d" x="0" y="0" width="176" height="176" filterUnits="userSpaceOnUse" color-interpolation-filters="sRGB">
<feFlood flood-opacity="0" result="BackgroundImageFix"/>
<feColorMatrix in="SourceAlpha" type="matrix" values="0 0 0 0 0 0 0 0 0 0 0 0 0 0 0 0 0 0 127 0"/>
<feOffset dy="14"/>
<feGaussianBlur stdDeviation="25"/>
<feColorMatrix type="matrix" values="0 0 0 0 0 0 0 0 0 0 0 0 0 0 0 0 0 0 1 0"/>
<feBlend mode="normal" in2="BackgroundImageFix" result="effect1_dropShadow"/>
<feBlend mode="normal" in="SourceGraphic" in2="effect1_dropShadow" result="shape"/>
</filter>
<clipPath id="clip0">
<rect x="50" y="36" width="76" height="76" fill="white"/>
</clipPath>
</defs>
</svg>
